  0
SECTION
  2
HEADER
  9
$ACADVER
  1
AC1009
  0
ENDSEC
  0
SECTION
  2
TABLES
  0
TABLE
  2
LAYER
  70
2
  0
LAYER
  2
Layer_0
  70
0
  62
7
  6
CONTINUOUS
  0
LAYER
  2
Layer_2
  70
0
  62
1
  6
CONTINUOUS
  0
ENDTAB
  0
ENDSEC
  0
SECTION
  2
ENTITIES
  0
POLYLINE
  5
90
  8
Layer_0
  62
7
  70
1
  66
1
  10
0
  20
0
  30
0
  0
VERTEX
  5
90
  8
Layer_0
  10
188.82162
  20
108.6899
  42
-0.4142153
  0
VERTEX
  5
91
  8
Layer_0
  10
188.20624
  20
109.03816
  42
-0.41421464
  0
VERTEX
  5
92
  8
Layer_0
  10
188.5545
  20
109.65355
  0
VERTEX
  5
93
  8
Layer_0
  10
190
  20
110.05423
  0
VERTEX
  5
94
  8
Layer_0
  10
190
  20
126.5
  42
0.41421356
  0
VERTEX
  5
95
  8
Layer_0
  10
184
  20
132.5
  0
VERTEX
  5
96
  8
Layer_0
  10
183.5
  20
132.5
  42
-0.41421356
  0
VERTEX
  5
97
  8
Layer_0
  10
183
  20
132
  42
-0.41421356
  0
VERTEX
  5
98
  8
Layer_0
  10
182.5
  20
132.5
  0
VERTEX
  5
99
  8
Layer_0
  10
116
  20
132.5
  42
0.41421356
  0
VERTEX
  5
9a
  8
Layer_0
  10
110
  20
126.5
  0
VERTEX
  5
9b
  8
Layer_0
  10
110
  20
73.5
  42
0.4142136
  0
VERTEX
  5
9c
  8
Layer_0
  10
116
  20
67.5
  0
VERTEX
  5
9d
  8
Layer_0
  10
184
  20
67.5
  42
0.41421354
  0
VERTEX
  5
9e
  8
Layer_0
  10
190
  20
73.5
  0
VERTEX
  5
9f
  8
Layer_0
  10
190
  20
109.01653
  0
SEQEND
  0
POLYLINE
  5
a1
  8
Layer_0
  62
7
  70
1
  66
1
  10
0
  20
0
  30
0
  0
VERTEX
  5
a1
  8
Layer_0
  10
138.61703
  20
83.649467
  42
0.41421326
  0
VERTEX
  5
a2
  8
Layer_0
  10
137.90053
  20
84.16703
  42
0.41421326
  0
VERTEX
  5
a3
  8
Layer_0
  10
137.38297
  20
83.450523
  42
0.41421326
  0
VERTEX
  5
a4
  8
Layer_0
  10
138.09947
  20
82.932961
  42
0.41421326
  0
SEQEND
  0
POLYLINE
  5
a6
  8
Layer_0
  62
7
  70
1
  66
1
  10
0
  20
0
  30
0
  0
VERTEX
  5
a6
  8
Layer_0
  10
125.9333
  20
81.808273
  0
VERTEX
  5
a7
  8
Layer_0
  10
125.40531
  20
79.837784
  42
-0.41422567
  0
VERTEX
  5
a8
  8
Layer_0
  10
125.09913
  20
79.661011
  0
VERTEX
  5
a9
  8
Layer_0
  10
123.12864
  20
80.189003
  42
-0.41421513
  0
VERTEX
  5
aa
  8
Layer_0
  10
122.95187
  20
80.495186
  0
VERTEX
  5
ab
  8
Layer_0
  10
123.47985
  20
82.465675
  42
0.41421513
  0
VERTEX
  5
ac
  8
Layer_0
  10
123.30308
  20
82.771866
  0
VERTEX
  5
ad
  8
Layer_0
  10
122.19226
  20
83.069504
  42
-0.41421566
  0
VERTEX
  5
ae
  8
Layer_0
  10
122.01549
  20
83.375687
  0
VERTEX
  5
af
  8
Layer_0
  10
122.15525
  20
83.897293
  42
-0.4142271
  0
VERTEX
  5
b0
  8
Layer_0
  10
122.46143
  20
84.074066
  0
VERTEX
  5
b1
  8
Layer_0
  10
122.65462
  20
84.022301
  0
VERTEX
  5
b2
  8
Layer_0
  10
123.98236
  20
88.977501
  42
-0.41421377
  0
VERTEX
  5
b3
  8
Layer_0
  10
127.00748
  20
90.72406
  42
-0.41421377
  0
VERTEX
  5
b4
  8
Layer_0
  10
128.75403
  20
87.698936
  0
VERTEX
  5
b5
  8
Layer_0
  10
127.42629
  20
82.743736
  0
VERTEX
  5
b6
  8
Layer_0
  10
127.61948
  20
82.691971
  42
-0.41421513
  0
VERTEX
  5
b7
  8
Layer_0
  10
127.79625
  20
82.385788
  0
VERTEX
  5
b8
  8
Layer_0
  10
127.65649
  20
81.864189
  42
-0.41421004
  0
VERTEX
  5
b9
  8
Layer_0
  10
127.3503
  20
81.687408
  0
VERTEX
  5
ba
  8
Layer_0
  10
126.23949
  20
81.985054
  42
0.41421252
  0
SEQEND
  0
POLYLINE
  5
bc
  8
Layer_0
  62
7
  70
1
  66
1
  10
0
  20
0
  30
0
  0
VERTEX
  5
bc
  8
Layer_0
  10
163.065
  20
71.599998
  42
-0.41421356
  0
VERTEX
  5
bd
  8
Layer_0
  10
163.315
  20
71.349998
  42
-0.41421306
  0
VERTEX
  5
be
  8
Layer_0
  10
163.065
  20
71.099998
  0
VERTEX
  5
bf
  8
Layer_0
  10
136.935
  20
71.099998
  42
-0.41421356
  0
VERTEX
  5
c0
  8
Layer_0
  10
136.685
  20
71.349998
  42
-0.41421356
  0
VERTEX
  5
c1
  8
Layer_0
  10
136.935
  20
71.599998
  0
SEQEND
  0
POLYLINE
  5
c3
  8
Layer_0
  62
7
  70
1
  66
1
  10
0
  20
0
  30
0
  0
VERTEX
  5
c3
  8
Layer_0
  10
143.98273
  20
75.500473
  42
-0.32303659
  0
VERTEX
  5
c4
  8
Layer_0
  10
144.15784
  20
74.942261
  42
-0.32303466
  0
VERTEX
  5
c5
  8
Layer_0
  10
143.68336
  20
74.599998
  0
VERTEX
  5
c6
  8
Layer_0
  10
136.935
  20
74.599998
  42
0.41421356
  0
VERTEX
  5
c7
  8
Layer_0
  10
136.685
  20
74.349998
  42
0.41421356
  0
VERTEX
  5
c8
  8
Layer_0
  10
136.935
  20
74.099998
  0
VERTEX
  5
c9
  8
Layer_0
  10
163.065
  20
74.099998
  42
0.41421356
  0
VERTEX
  5
ca
  8
Layer_0
  10
163.315
  20
74.349998
  42
0.41421356
  0
VERTEX
  5
cb
  8
Layer_0
  10
163.065
  20
74.599998
  0
VERTEX
  5
cc
  8
Layer_0
  10
156.31665
  20
74.599998
  42
-0.32303446
  0
VERTEX
  5
cd
  8
Layer_0
  10
155.84218
  20
74.942261
  42
-0.32303757
  0
VERTEX
  5
ce
  8
Layer_0
  10
156.01729
  20
75.500473
  42
0.090994565
  0
VERTEX
  5
cf
  8
Layer_0
  10
158.48332
  20
78.161514
  42
0.27173411
  0
VERTEX
  5
d0
  8
Layer_0
  10
158.91345
  20
78.155449
  42
0.27173075
  0
VERTEX
  5
d1
  8
Layer_0
  10
159.12854
  20
78.527992
  42
0.27173542
  0
VERTEX
  5
d2
  8
Layer_0
  10
158.90822
  20
78.897469
  42
0.35600868
  0
VERTEX
  5
d3
  8
Layer_0
  10
156.35085
  20
91.33905
  42
0.3560079
  0
VERTEX
  5
d4
  8
Layer_0
  10
143.64915
  20
91.339043
  42
0.3560092
  0
VERTEX
  5
d5
  8
Layer_0
  10
141.09178
  20
78.897469
  42
0.27173542
  0
VERTEX
  5
d6
  8
Layer_0
  10
140.87146
  20
78.527992
  42
0.27173075
  0
VERTEX
  5
d7
  8
Layer_0
  10
141.08655
  20
78.155449
  42
0.27173411
  0
VERTEX
  5
d8
  8
Layer_0
  10
141.51668
  20
78.161514
  42
0.090996718
  0
SEQEND
  0
POLYLINE
  5
da
  8
Layer_0
  62
7
  70
1
  66
1
  10
0
  20
0
  30
0
  0
VERTEX
  5
da
  8
Layer_0
  10
162.61703
  20
83.649467
  42
0.41421326
  0
VERTEX
  5
db
  8
Layer_0
  10
161.90053
  20
84.16703
  42
0.41421326
  0
VERTEX
  5
dc
  8
Layer_0
  10
161.38297
  20
83.450523
  42
0.41421326
  0
VERTEX
  5
dd
  8
Layer_0
  10
162.09947
  20
82.932961
  42
0.41421326
  0
SEQEND
  0
POLYLINE
  5
df
  8
Layer_0
  62
7
  70
1
  66
1
  10
0
  20
0
  30
0
  0
VERTEX
  5
df
  8
Layer_0
  10
173.76051
  20
81.985054
  0
VERTEX
  5
e0
  8
Layer_0
  10
172.64969
  20
81.687408
  42
-0.41424549
  0
VERTEX
  5
e1
  8
Layer_0
  10
172.34352
  20
81.864189
  0
VERTEX
  5
e2
  8
Layer_0
  10
172.20375
  20
82.385788
  42
-0.41421094
  0
VERTEX
  5
e3
  8
Layer_0
  10
172.38052
  20
82.691971
  0
VERTEX
  5
e4
  8
Layer_0
  10
172.57372
  20
82.743736
  0
VERTEX
  5
e5
  8
Layer_0
  10
171.24597
  20
87.698936
  42
-0.41421454
  0
VERTEX
  5
e6
  8
Layer_0
  10
172.99252
  20
90.72406
  42
-0.41421536
  0
VERTEX
  5
e7
  8
Layer_0
  10
176.01764
  20
88.977501
  0
VERTEX
  5
e8
  8
Layer_0
  10
177.34538
  20
84.022301
  0
VERTEX
  5
e9
  8
Layer_0
  10
177.53857
  20
84.074066
  42
-0.41421175
  0
VERTEX
  5
ea
  8
Layer_0
  10
177.84476
  20
83.897293
  0
VERTEX
  5
eb
  8
Layer_0
  10
177.98453
  20
83.375687
  42
-0.41421985
  0
VERTEX
  5
ec
  8
Layer_0
  10
177.80774
  20
83.069504
  0
VERTEX
  5
ed
  8
Layer_0
  10
176.69693
  20
82.771866
  42
0.41425059
  0
VERTEX
  5
ee
  8
Layer_0
  10
176.52016
  20
82.465675
  0
VERTEX
  5
ef
  8
Layer_0
  10
177.04814
  20
80.495186
  42
-0.41421094
  0
VERTEX
  5
f0
  8
Layer_0
  10
176.87137
  20
80.189003
  0
VERTEX
  5
f1
  8
Layer_0
  10
174.90088
  20
79.661011
  42
-0.41420585
  0
VERTEX
  5
f2
  8
Layer_0
  10
174.59468
  20
79.837784
  0
VERTEX
  5
f3
  8
Layer_0
  10
174.0667
  20
81.808273
  42
0.41423959
  0
SEQEND
  0
POLYLINE
  5
f5
  8
Layer_0
  62
7
  70
1
  66
1
  10
0
  20
0
  30
0
  0
VERTEX
  5
f5
  8
Layer_0
  10
155.90141
  20
128.49512
  42
-0.41421356
  0
VERTEX
  5
f6
  8
Layer_0
  10
157.40141
  20
126.99512
  42
-0.41421356
  0
VERTEX
  5
f7
  8
Layer_0
  10
155.90141
  20
125.49512
  0
VERTEX
  5
f8
  8
Layer_0
  10
143.90141
  20
125.49512
  42
-0.41421356
  0
VERTEX
  5
f9
  8
Layer_0
  10
142.40141
  20
126.99512
  42
-0.41421356
  0
VERTEX
  5
fa
  8
Layer_0
  10
143.90141
  20
128.49512
  0
SEQEND
  0
POLYLINE
  5
fc
  8
Layer_2
  62
1
  70
1
  66
1
  10
0
  20
0
  30
0
  0
VERTEX
  5
fc
  8
Layer_2
  10
173.06235
  20
75.033173
  0
VERTEX
  5
fd
  8
Layer_2
  10
173.06615
  20
75.029373
  0
VERTEX
  5
fe
  8
Layer_2
  10
173.06996
  20
75.021767
  0
VERTEX
  5
ff
  8
Layer_2
  10
173.07376
  20
75.017967
  0
VERTEX
  5
100
  8
Layer_2
  10
173.07756
  20
75.017967
  0
VERTEX
  5
101
  8
Layer_2
  10
173.08136
  20
75.01416
  0
VERTEX
  5
102
  8
Layer_2
  10
173.08516
  20
75.010361
  0
VERTEX
  5
103
  8
Layer_2
  10
173.08897
  20
75.010361
  0
VERTEX
  5
104
  8
Layer_2
  10
173.08897
  20
75.006561
  0
VERTEX
  5
105
  8
Layer_2
  10
173.09277
  20
75.006561
  0
VERTEX
  5
106
  8
Layer_2
  10
173.09657
  20
75.006561
  0
VERTEX
  5
107
  8
Layer_2
  10
173.10037
  20
75.002754
  0
VERTEX
  5
108
  8
Layer_2
  10
173.10417
  20
75.002754
  0
VERTEX
  5
109
  8
Layer_2
  10
173.10799
  20
75.002754
  0
VERTEX
  5
10a
  8
Layer_2
  10
173.11559
  20
75.002754
  0
VERTEX
  5
10b
  8
Layer_2
  10
173.11938
  20
75.002754
  0
VERTEX
  5
10c
  8
Layer_2
  10
173.12318
  20
75.002754
  0
VERTEX
  5
10d
  8
Layer_2
  10
173.127
  20
75.002754
  0
VERTEX
  5
10e
  8
Layer_2
  10
173.1346
  20
75.002754
  0
VERTEX
  5
10f
  8
Layer_2
  10
173.14221
  20
75.006561
  0
VERTEX
  5
110
  8
Layer_2
  10
173.15361
  20
75.002754
  0
VERTEX
  5
111
  8
Layer_2
  10
173.16502
  20
74.995148
  0
VERTEX
  5
112
  8
Layer_2
  10
173.17642
  20
74.991348
  0
VERTEX
  5
113
  8
Layer_2
  10
173.18784
  20
74.983742
  0
VERTEX
  5
114
  8
Layer_2
  10
173.20305
  20
74.972336
  0
VERTEX
  5
115
  8
Layer_2
  10
173.21065
  20
74.964729
  0
VERTEX
  5
116
  8
Layer_2
  10
173.22206
  20
74.957123
  0
VERTEX
  5
117
  8
Layer_2
  10
173.23347
  20
74.945717
  0
VERTEX
  5
118
  8
Layer_2
  10
173.24487
  20
74.934311
  0
VERTEX
  5
119
  8
Layer_2
  10
173.25629
  20
74.922897
  0
VERTEX
  5
11a
  8
Layer_2
  10
173.26768
  20
74.907692
  0
VERTEX
  5
11b
  8
Layer_2
  10
173.2753
  20
74.892479
  0
VERTEX
  5
11c
  8
Layer_2
  10
173.2867
  20
74.881073
  0
VERTEX
  5
11d
  8
Layer_2
  10
173.29811
  20
74.86586
  0
VERTEX
  5
11e
  8
Layer_2
  10
173.30573
  20
74.846848
  0
VERTEX
  5
11f
  8
Layer_2
  10
173.31712
  20
74.831635
  0
VERTEX
  5
120
  8
Layer_2
  10
173.33614
  20
74.797417
  0
VERTEX
  5
121
  8
Layer_2
  10
173.35135
  20
74.766991
  0
VERTEX
  5
122
  8
Layer_2
  10
173.36276
  20
74.747978
  0
VERTEX
  5
123
  8
Layer_2
  10
173.37036
  20
74.732765
  0
VERTEX
  5
124
  8
Layer_2
  10
173.38557
  20
74.698547
  0
VERTEX
  5
125
  8
Layer_2
  10
173.40079
  20
74.668121
  0
VERTEX
  5
126
  8
Layer_2
  10
173.41599
  20
74.633904
  0
VERTEX
  5
127
  8
Layer_2
  10
173.4312
  20
74.603477
  0
VERTEX
  5
128
  8
Layer_2
  10
173.43881
  20
74.584465
  0
VERTEX
  5
129
  8
Layer_2
  10
173.44641
  20
74.56926
  0
VERTEX
  5
12a
  8
Layer_2
  10
173.45782
  20
74.535034
  0
VERTEX
  5
12b
  8
Layer_2
  10
173.46542
  20
74.519821
  0
VERTEX
  5
12c
  8
Layer_2
  10
173.46922
  20
74.504608
  0
VERTEX
  5
12d
  8
Layer_2
  10
173.47684
  20
74.485596
  0
VERTEX
  5
12e
  8
Layer_2
  10
173.48064
  20
74.47039
  0
VERTEX
  5
12f
  8
Layer_2
  10
173.48444
  20
74.455177
  0
VERTEX
  5
130
  8
Layer_2
  10
173.49205
  20
74.436165
  0
VERTEX
  5
131
  8
Layer_2
  10
173.49585
  20
74.420952
  0
VERTEX
  5
132
  8
Layer_2
  10
173.49965
  20
74.405746
  0
VERTEX
  5
133
  8
Layer_2
  10
173.50345
  20
74.386734
  0
VERTEX
  5
134
  8
Layer_2
  10
173.50726
  20
74.371521
  0
VERTEX
  5
135
  8
Layer_2
  10
173.51106
  20
74.356308
  0
VERTEX
  5
136
  8
Layer_2
  10
173.51486
  20
74.337296
  0
VERTEX
  5
137
  8
Layer_2
  10
173.52246
  20
74.306877
  0
VERTEX
  5
138
  8
Layer_2
  10
173.53767
  20
74.265045
  0
VERTEX
  5
139
  8
Layer_2
  10
173.53008
  20
74.261246
  0
VERTEX
  5
13a
  8
Layer_2
  10
173.52628
  20
74.257439
  0
VERTEX
  5
13b
  8
Layer_2
  10
173.51866
  20
74.257439
  0
VERTEX
  5
13c
  8
Layer_2
  10
173.51106
  20
74.253639
  0
VERTEX
  5
13d
  8
Layer_2
  10
173.49965
  20
74.253639
  0
VERTEX
  5
13e
  8
Layer_2
  10
173.49205
  20
74.253639
  0
VERTEX
  5
13f
  8
Layer_2
  10
173.48064
  20
74.253639
  0
VERTEX
  5
140
  8
Layer_2
  10
173.47304
  20
74.257439
  0
VERTEX
  5
141
  8
Layer_2
  10
173.46162
  20
74.280258
  0
VERTEX
  5
142
  8
Layer_2
  10
173.45403
  20
74.30307
  0
VERTEX
  5
143
  8
Layer_2
  10
173.44261
  20
74.32589
  0
VERTEX
  5
144
  8
Layer_2
  10
173.43501
  20
74.348701
  0
VERTEX
  5
145
  8
Layer_2
  10
173.4312
  20
74.360115
  0
VERTEX
  5
146
  8
Layer_2
  10
173.4236
  20
74.371521
  0
VERTEX
  5
147
  8
Layer_2
  10
173.41219
  20
74.390533
  0
VERTEX
  5
148
  8
Layer_2
  10
173.40079
  20
74.409546
  0
VERTEX
  5
149
  8
Layer_2
  10
173.38937
  20
74.428558
  0
VERTEX
  5
14a
  8
Layer_2
  10
173.38557
  20
74.439964
  0
VERTEX
  5
14b
  8
Layer_2
  10
173.37796
  20
74.447571
  0
VERTEX
  5
14c
  8
Layer_2
  10
173.36656
  20
74.466583
  0
VERTEX
  5
14d
  8
Layer_2
  10
173.35515
  20
74.481796
  0
VERTEX
  5
14e
  8
Layer_2
  10
173.33994
  20
74.497009
  0
VERTEX
  5
14f
  8
Layer_2
  10
173.32854
  20
74.512215
  0
VERTEX
  5
150
  8
Layer_2
  10
173.31332
  20
74.527428
  0
VERTEX
  5
151
  8
Layer_2
  10
173.30573
  20
74.535034
  0
VERTEX
  5
152
  8
Layer_2
  10
173.2867
  20
74.554047
  0
VERTEX
  5
153
  8
Layer_2
  10
173.2829
  20
74.561653
  0
VERTEX
  5
154
  8
Layer_2
  10
173.2791
  20
74.573059
  0
VERTEX
  5
155
  8
Layer_2
  10
173.2791
  20
74.580666
  0
VERTEX
  5
156
  8
Layer_2
  10
173.2715
  20
74.592072
  0
VERTEX
  5
157
  8
Layer_2
  10
173.26768
  20
74.599678
  0
VERTEX
  5
158
  8
Layer_2
  10
173.26389
  20
74.603477
  0
VERTEX
  5
159
  8
Layer_2
  10
173.26009
  20
74.607285
  0
VERTEX
  5
15a
  8
Layer_2
  10
173.25629
  20
74.611084
  0
VERTEX
  5
15b
  8
Layer_2
  10
173.24867
  20
74.614883
  0
VERTEX
  5
15c
  8
Layer_2
  10
173.24487
  20
74.61869
  0
VERTEX
  5
15d
  8
Layer_2
  10
173.24107
  20
74.61869
  0
VERTEX
  5
15e
  8
Layer_2
  10
173.23347
  20
74.61869
  0
VERTEX
  5
15f
  8
Layer_2
  10
173.22966
  20
74.61869
  0
VERTEX
  5
160
  8
Layer_2
  10
173.22206
  20
74.61869
  0
VERTEX
  5
161
  8
Layer_2
  10
173.21445
  20
74.61869
  0
VERTEX
  5
162
  8
Layer_2
  10
173.21065
  20
74.614883
  0
VERTEX
  5
163
  8
Layer_2
  10
173.20685
  20
74.611084
  0
VERTEX
  5
164
  8
Layer_2
  10
173.20305
  20
74.611084
  0
VERTEX
  5
165
  8
Layer_2
  10
173.19164
  20
74.603477
  0
VERTEX
  5
166
  8
Layer_2
  10
173.18404
  20
74.599678
  0
VERTEX
  5
167
  8
Layer_2
  10
173.17642
  20
74.599678
  0
VERTEX
  5
168
  8
Layer_2
  10
173.16502
  20
74.592072
  0
VERTEX
  5
169
  8
Layer_2
  10
173.15361
  20
74.588272
  0
VERTEX
  5
16a
  8
Layer_2
  10
173.14221
  20
74.584465
  0
VERTEX
  5
16b
  8
Layer_2
  10
173.1308
  20
74.580666
  0
VERTEX
  5
16c
  8
Layer_2
  10
173.11938
  20
74.573059
  0
VERTEX
  5
16d
  8
Layer_2
  10
173.11179
  20
74.573059
  0
VERTEX
  5
16e
  8
Layer_2
  10
173.10417
  20
74.56926
  0
VERTEX
  5
16f
  8
Layer_2
  10
173.09657
  20
74.56926
  0
VERTEX
  5
170
  8
Layer_2
  10
173.08516
  20
74.565453
  0
VERTEX
  5
171
  8
Layer_2
  10
173.07756
  20
74.565453
  0
VERTEX
  5
172
  8
Layer_2
  10
173.06235
  20
74.565453
  0
VERTEX
  5
173
  8
Layer_2
  10
173.05855
  20
74.565453
  0
VERTEX
  5
174
  8
Layer_2
  10
173.01672
  20
74.531227
  0
VERTEX
  5
175
  8
Layer_2
  10
172.97488
  20
74.500809
  0
VERTEX
  5
176
  8
Layer_2
  10
172.93686
  20
74.466583
  0
VERTEX
  5
177
  8
Layer_2
  10
172.89883
  20
74.436165
  0
VERTEX
  5
178
  8
Layer_2
  10
172.86081
  20
74.405746
  0
VERTEX
  5
179
  8
Layer_2
  10
172.73152
  20
74.295471
  0
VERTEX
  5
17a
  8
Layer_2
  10
172.72772
  20
74.295471
  0
VERTEX
  5
17b
  8
Layer_2
  10
172.63266
  20
74.379128
  0
VERTEX
  5
17c
  8
Layer_2
  10
172.63266
  20
74.436165
  0
VERTEX
  5
17d
  8
Layer_2
  10
172.75433
  20
74.542641
  0
VERTEX
  5
17e
  8
Layer_2
  10
172.77335
  20
74.561653
  0
VERTEX
  5
17f
  8
Layer_2
  10
172.78856
  20
74.576859
  0
VERTEX
  5
180
  8
Layer_2
  10
172.79997
  20
74.588272
  0
VERTEX
  5
181
  8
Layer_2
  10
172.80757
  20
74.595871
  0
VERTEX
  5
182
  8
Layer_2
  10
172.82658
  20
74.614883
  0
VERTEX
  5
183
  8
Layer_2
  10
172.8456
  20
74.633904
  0
VERTEX
  5
184
  8
Layer_2
  10
172.86461
  20
74.649109
  0
VERTEX
  5
185
  8
Layer_2
  10
172.88362
  20
74.668121
  0
VERTEX
  5
186
  8
Layer_2
  10
172.88744
  20
74.675728
  0
VERTEX
  5
187
  8
Layer_2
  10
172.89124
  20
74.679535
  0
VERTEX
  5
188
  8
Layer_2
  10
172.90263
  20
74.687134
  0
VERTEX
  5
189
  8
Layer_2
  10
172.93686
  20
74.725166
  0
VERTEX
  5
18a
  8
Layer_2
  10
172.94066
  20
74.728966
  0
VERTEX
  5
18b
  8
Layer_2
  10
172.94066
  20
74.736572
  0
VERTEX
  5
18c
  8
Layer_2
  10
172.94447
  20
74.744179
  0
VERTEX
  5
18d
  8
Layer_2
  10
172.94827
  20
74.747978
  0
VERTEX
  5
18e
  8
Layer_2
  10
172.94827
  20
74.755585
  0
VERTEX
  5
18f
  8
Layer_2
  10
172.95207
  20
74.759384
  0
VERTEX
  5
190
  8
Layer_2
  10
172.95587
  20
74.763191
  0
VERTEX
  5
191
  8
Layer_2
  10
172.96349
  20
74.770798
  0
VERTEX
  5
192
  8
Layer_2
  10
172.97108
  20
74.774597
  0
VERTEX
  5
193
  8
Layer_2
  10
172.97488
  20
74.782204
  0
VERTEX
  5
194
  8
Layer_2
  10
172.9863
  20
74.78981
  0
VERTEX
  5
195
  8
Layer_2
  10
172.99771
  20
74.797417
  0
VERTEX
  5
196
  8
Layer_2
  10
173.00151
  20
74.820229
  0
VERTEX
  5
197
  8
Layer_2
  10
173.00151
  20
74.839241
  0
VERTEX
  5
198
  8
Layer_2
  10
173.00151
  20
74.850647
  0
VERTEX
  5
199
  8
Layer_2
  10
173.00151
  20
74.858253
  0
VERTEX
  5
19a
  8
Layer_2
  10
173.00151
  20
74.869659
  0
VERTEX
  5
19b
  8
Layer_2
  10
172.99771
  20
74.877266
  0
VERTEX
  5
19c
  8
Layer_2
  10
172.99771
  20
74.884872
  0
VERTEX
  5
19d
  8
Layer_2
  10
172.9939
  20
74.892479
  0
VERTEX
  5
19e
  8
Layer_2
  10
172.9939
  20
74.903885
  0
VERTEX
  5
19f
  8
Layer_2
  10
172.9901
  20
74.907692
  0
VERTEX
  5
1a0
  8
Layer_2
  10
172.9863
  20
74.915291
  0
VERTEX
  5
1a1
  8
Layer_2
  10
172.9863
  20
74.922897
  0
VERTEX
  5
1a2
  8
Layer_2
  10
172.9825
  20
74.930504
  0
VERTEX
  5
1a3
  8
Layer_2
  10
172.9787
  20
74.93811
  0
VERTEX
  5
1a4
  8
Layer_2
  10
172.97488
  20
74.94191
  0
VERTEX
  5
1a5
  8
Layer_2
  10
172.96729
  20
74.949516
  0
VERTEX
  5
1a6
  8
Layer_2
  10
172.96349
  20
74.953323
  0
VERTEX
  5
1a7
  8
Layer_2
  10
172.95967
  20
74.960922
  0
VERTEX
  5
1a8
  8
Layer_2
  10
172.94827
  20
74.968529
  0
VERTEX
  5
1a9
  8
Layer_2
  10
172.93306
  20
74.976135
  0
VERTEX
  5
1aa
  8
Layer_2
  10
172.91785
  20
74.983742
  0
VERTEX
  5
1ab
  8
Layer_2
  10
172.90263
  20
74.991348
  0
VERTEX
  5
1ac
  8
Layer_2
  10
172.89503
  20
74.991348
  0
VERTEX
  5
1ad
  8
Layer_2
  10
172.88744
  20
74.995148
  0
VERTEX
  5
1ae
  8
Layer_2
  10
172.87602
  20
74.995148
  0
VERTEX
  5
1af
  8
Layer_2
  10
172.86842
  20
74.998955
  0
VERTEX
  5
1b0
  8
Layer_2
  10
172.79617
  20
75.097824
  0
VERTEX
  5
1b1
  8
Layer_2
  10
172.79617
  20
75.10923
  0
VERTEX
  5
1b2
  8
Layer_2
  10
172.79997
  20
75.116837
  0
VERTEX
  5
1b3
  8
Layer_2
  10
172.79997
  20
75.124435
  0
VERTEX
  5
1b4
  8
Layer_2
  10
172.80377
  20
75.132042
  0
VERTEX
  5
1b5
  8
Layer_2
  10
172.80757
  20
75.139648
  0
VERTEX
  5
1b6
  8
Layer_2
  10
172.81137
  20
75.143448
  0
VERTEX
  5
1b7
  8
Layer_2
  10
172.81519
  20
75.151054
  0
VERTEX
  5
1b8
  8
Layer_2
  10
172.81898
  20
75.158661
  0
VERTEX
  5
1b9
  8
Layer_2
  10
172.82278
  20
75.16246
  0
VERTEX
  5
1ba
  8
Layer_2
  10
172.83038
  20
75.166267
  0
VERTEX
  5
1bb
  8
Layer_2
  10
172.8342
  20
75.173874
  0
VERTEX
  5
1bc
  8
Layer_2
  10
172.838
  20
75.177673
  0
VERTEX
  5
1bd
  8
Layer_2
  10
172.8456
  20
75.18148
  0
VERTEX
  5
1be
  8
Layer_2
  10
172.8494
  20
75.18528
  0
VERTEX
  5
1bf
  8
Layer_2
  10
172.85701
  20
75.189079
  0
VERTEX
  5
1c0
  8
Layer_2
  10
172.86461
  20
75.192886
  0
VERTEX
  5
1c1
  8
Layer_2
  10
172.87222
  20
75.196686
  0
VERTEX
  5
1c2
  8
Layer_2
  10
172.87982
  20
75.200493
  0
VERTEX
  5
1c3
  8
Layer_2
  10
172.88744
  20
75.204292
  0
VERTEX
  5
1c4
  8
Layer_2
  10
172.89503
  20
75.208099
  0
VERTEX
  5
1c5
  8
Layer_2
  10
172.90645
  20
75.208099
  0
VERTEX
  5
1c6
  8
Layer_2
  10
172.91405
  20
75.211899
  0
VERTEX
  5
1c7
  8
Layer_2
  10
172.92546
  20
75.215698
  0
VERTEX
  5
1c8
  8
Layer_2
  10
172.93306
  20
75.219505
  0
VERTEX
  5
1c9
  8
Layer_2
  10
173.02052
  20
75.128242
  0
VERTEX
  5
1ca
  8
Layer_2
  10
173.02432
  20
75.120636
  0
VERTEX
  5
1cb
  8
Layer_2
  10
173.02432
  20
75.10923
  0
VERTEX
  5
1cc
  8
Layer_2
  10
173.03192
  20
75.094017
  0
VERTEX
  5
1cd
  8
Layer_2
  10
173.03192
  20
75.090218
  0
VERTEX
  5
1ce
  8
Layer_2
  10
173.03192
  20
75.086411
  0
VERTEX
  5
1cf
  8
Layer_2
  10
173.03954
  20
75.071198
  0
VERTEX
  5
1d0
  8
Layer_2
  10
173.04333
  20
75.063599
  0
VERTEX
  5
1d1
  8
Layer_2
  10
173.04333
  20
75.059792
  0
VERTEX
  5
1d2
  8
Layer_2
  10
173.04713
  20
75.052185
  0
VERTEX
  5
1d3
  8
Layer_2
  10
173.05095
  20
75.048386
  0
VERTEX
  5
1d4
  8
Layer_2
  10
173.05475
  20
75.040779
  0
VERTEX
  5
1d5
  8
Layer_2
  10
173.05855
  20
75.03698
  0
VERTEX
  5
1d6
  8
Layer_2
  10
173.05855
  20
75.033173
  0
SEQEND
  0
POLYLINE
  5
1d8
  8
Layer_2
  62
1
  70
1
  66
1
  10
0
  20
0
  30
0
  0
VERTEX
  5
1d8
  8
Layer_2
  10
173.127
  20
74.578766
  0
VERTEX
  5
1d9
  8
Layer_2
  10
173.127
  20
74.576859
  0
SEQEND
  0
POLYLINE
  5
1db
  8
Layer_2
  62
1
  70
1
  66
1
  10
0
  20
0
  30
0
  0
VERTEX
  5
1db
  8
Layer_2
  10
172.72772
  20
74.698547
  42
0.41421356
  0
VERTEX
  5
1dc
  8
Layer_2
  10
172.41971
  20
74.390533
  42
0.11642747
  0
VERTEX
  5
1dd
  8
Layer_2
  10
172.44632
  20
74.265045
  42
0.14094182
  0
VERTEX
  5
1de
  8
Layer_2
  10
172.55659
  20
74.131958
  42
-0.00021313231
  0
VERTEX
  5
1df
  8
Layer_2
  10
172.57561
  20
74.120544
  0
VERTEX
  5
1e0
  8
Layer_2
  10
172.57561
  20
72.470215
  42
0.29713376
  0
VERTEX
  5
1e1
  8
Layer_2
  10
172.35126
  20
72.127975
  42
0.23065753
  0
VERTEX
  5
1e2
  8
Layer_2
  10
172.49196
  20
71.835175
  0
VERTEX
  5
1e3
  8
Layer_2
  10
172.52618
  20
71.835175
  0
VERTEX
  5
1e4
  8
Layer_2
  10
172.52618
  20
72.070938
  0
VERTEX
  5
1e5
  8
Layer_2
  10
172.72772
  20
72.230644
  0
VERTEX
  5
1e6
  8
Layer_2
  10
172.93306
  20
72.070938
  0
VERTEX
  5
1e7
  8
Layer_2
  10
172.93306
  20
71.835175
  0
VERTEX
  5
1e8
  8
Layer_2
  10
172.96349
  20
71.835175
  0
VERTEX
  5
1e9
  8
Layer_2
  10
172.96729
  20
71.835175
  42
0.23065753
  0
VERTEX
  5
1ea
  8
Layer_2
  10
173.10799
  20
72.127975
  42
0.29032438
  0
VERTEX
  5
1eb
  8
Layer_2
  10
172.88362
  20
72.470215
  0
VERTEX
  5
1ec
  8
Layer_2
  10
172.88362
  20
74.128151
  42
0.26174861
  0
VERTEX
  5
1ed
  8
Layer_2
  10
173.02812
  20
74.390533
  42
0.069630334
  0
VERTEX
  5
1ee
  8
Layer_2
  10
173.01672
  20
74.47039
  0
VERTEX
  5
1ef
  8
Layer_2
  10
173.00531
  20
74.458984
  0
VERTEX
  5
1f0
  8
Layer_2
  10
172.96729
  20
74.428558
  0
VERTEX
  5
1f1
  8
Layer_2
  10
172.92926
  20
74.39814
  0
VERTEX
  5
1f2
  8
Layer_2
  10
172.89124
  20
74.367714
  0
VERTEX
  5
1f3
  8
Layer_2
  10
172.87222
  20
74.352509
  0
VERTEX
  5
1f4
  8
Layer_2
  10
172.87222
  20
74.32589
  0
VERTEX
  5
1f5
  8
Layer_2
  10
172.78856
  20
74.242233
  0
VERTEX
  5
1f6
  8
Layer_2
  10
172.74673
  20
74.242233
  0
VERTEX
  5
1f7
  8
Layer_2
  10
172.67068
  20
74.242233
  0
VERTEX
  5
1f8
  8
Layer_2
  10
172.66307
  20
74.242233
  0
VERTEX
  5
1f9
  8
Layer_2
  10
172.56801
  20
74.32589
  0
VERTEX
  5
1fa
  8
Layer_2
  10
172.56801
  20
74.382927
  0
VERTEX
  5
1fb
  8
Layer_2
  10
172.56801
  20
74.451378
  0
VERTEX
  5
1fc
  8
Layer_2
  10
172.56801
  20
74.455177
  0
VERTEX
  5
1fd
  8
Layer_2
  10
172.66307
  20
74.554047
  0
VERTEX
  5
1fe
  8
Layer_2
  10
172.68208
  20
74.554047
  0
VERTEX
  5
1ff
  8
Layer_2
  10
172.72011
  20
74.588272
  0
VERTEX
  5
200
  8
Layer_2
  10
172.73912
  20
74.603477
  0
VERTEX
  5
201
  8
Layer_2
  10
172.75815
  20
74.61869
  0
VERTEX
  5
202
  8
Layer_2
  10
172.76575
  20
74.626297
  0
VERTEX
  5
203
  8
Layer_2
  10
172.77335
  20
74.633904
  0
VERTEX
  5
204
  8
Layer_2
  10
172.79236
  20
74.649109
  0
VERTEX
  5
205
  8
Layer_2
  10
172.81137
  20
74.668121
  0
VERTEX
  5
206
  8
Layer_2
  10
172.82658
  20
74.683334
  42
0.089961678
  0
SEQEND
  0
POLYLINE
  5
208
  8
Layer_2
  62
1
  70
1
  66
1
  10
0
  20
0
  30
0
  0
VERTEX
  5
208
  8
Layer_2
  10
171.85692
  20
73.550156
  0
VERTEX
  5
209
  8
Layer_2
  10
171.86833
  20
73.550156
  42
-0.035491036
  0
VERTEX
  5
20a
  8
Layer_2
  10
171.93297
  20
73.546356
  0
VERTEX
  5
20b
  8
Layer_2
  10
171.95578
  20
73.569168
  0
VERTEX
  5
20c
  8
Layer_2
  10
171.97099
  20
73.580574
  0
VERTEX
  5
20d
  8
Layer_2
  10
172.00142
  20
73.607193
  0
VERTEX
  5
20e
  8
Layer_2
  10
172.01283
  20
73.618599
  0
VERTEX
  5
20f
  8
Layer_2
  10
172.04324
  20
73.649025
  0
VERTEX
  5
210
  8
Layer_2
  10
172.05466
  20
73.660431
  0
VERTEX
  5
211
  8
Layer_2
  10
172.07367
  20
73.675644
  0
VERTEX
  5
212
  8
Layer_2
  10
172.08888
  20
73.690849
  0
VERTEX
  5
213
  8
Layer_2
  10
172.11929
  20
73.717468
  0
VERTEX
  5
214
  8
Layer_2
  10
172.14972
  20
73.744087
  0
VERTEX
  5
215
  8
Layer_2
  10
172.18015
  20
73.770706
  0
VERTEX
  5
216
  8
Layer_2
  10
172.20676
  20
73.797325
  0
VERTEX
  5
217
  8
Layer_2
  10
172.27141
  20
73.877182
  0
VERTEX
  5
218
  8
Layer_2
  10
172.30183
  20
73.9076
  0
VERTEX
  5
219
  8
Layer_2
  10
172.33224
  20
73.938019
  0
VERTEX
  5
21a
  8
Layer_2
  10
172.36267
  20
73.968445
  0
VERTEX
  5
21b
  8
Layer_2
  10
172.4045
  20
74.00267
  0
VERTEX
  5
21c
  8
Layer_2
  10
172.43872
  20
74.033089
  0
VERTEX
  5
21d
  8
Layer_2
  10
172.47295
  20
74.063507
  0
VERTEX
  5
21e
  8
Layer_2
  10
172.50717
  20
74.093933
  0
VERTEX
  5
21f
  8
Layer_2
  10
172.52238
  20
74.105339
  42
-0.14720417
  0
VERTEX
  5
220
  8
Layer_2
  10
172.41209
  20
74.238426
  0
VERTEX
  5
221
  8
Layer_2
  10
172.4045
  20
74.234627
  0
VERTEX
  5
222
  8
Layer_2
  10
172.3969
  20
74.22702
  0
VERTEX
  5
223
  8
Layer_2
  10
172.35887
  20
74.196602
  0
VERTEX
  5
224
  8
Layer_2
  10
172.32085
  20
74.166176
  0
VERTEX
  5
225
  8
Layer_2
  10
172.28281
  20
74.135757
  0
VERTEX
  5
226
  8
Layer_2
  10
172.26379
  20
74.120544
  0
VERTEX
  5
227
  8
Layer_2
  10
172.24478
  20
74.105339
  0
VERTEX
  5
228
  8
Layer_2
  10
172.22577
  20
74.090126
  0
VERTEX
  5
229
  8
Layer_2
  10
172.20676
  20
74.074913
  0
VERTEX
  5
22a
  8
Layer_2
  10
172.18774
  20
74.059708
  0
VERTEX
  5
22b
  8
Layer_2
  10
172.18015
  20
74.052101
  0
VERTEX
  5
22c
  8
Layer_2
  10
172.17253
  20
74.044495
  0
VERTEX
  5
22d
  8
Layer_2
  10
172.13832
  20
74.017876
  0
VERTEX
  5
22e
  8
Layer_2
  10
171.97099
  20
73.888588
  0
VERTEX
  5
22f
  8
Layer_2
  10
171.94058
  20
73.865768
  0
VERTEX
  5
230
  8
Layer_2
  10
171.92157
  20
73.850563
  0
VERTEX
  5
231
  8
Layer_2
  10
171.90256
  20
73.83535
  0
VERTEX
  5
232
  8
Layer_2
  10
171.89114
  20
73.823944
  0
VERTEX
  5
233
  8
Layer_2
  10
171.86833
  20
73.804932
  0
VERTEX
  5
234
  8
Layer_2
  10
171.8455
  20
73.785919
  0
VERTEX
  5
235
  8
Layer_2
  10
171.83791
  20
73.782112
  0
VERTEX
  5
236
  8
Layer_2
  10
171.81129
  20
73.7631
  0
VERTEX
  5
237
  8
Layer_2
  10
171.79228
  20
73.747894
  0
VERTEX
  5
238
  8
Layer_2
  10
171.77707
  20
73.732681
  0
VERTEX
  5
239
  8
Layer_2
  10
171.75806
  20
73.713669
  0
VERTEX
  5
23a
  8
Layer_2
  10
171.73904
  20
73.694656
  0
VERTEX
  5
23b
  8
Layer_2
  10
171.72383
  20
73.679443
  0
VERTEX
  5
23c
  8
Layer_2
  10
171.70862
  20
73.668037
  0
VERTEX
  5
23d
  8
Layer_2
  10
171.70102
  20
73.66423
  42
0.068998333
  0
SEQEND
  0
POLYLINE
  5
23f
  8
Layer_2
  62
1
  66
1
  10
0
  20
0
  30
0
  0
VERTEX
  5
23f
  8
Layer_2
  10
171.83791
  20
73.782112
  0
VERTEX
  5
240
  8
Layer_2
  10
171.83031
  20
73.778313
  0
SEQEND
  0
POLYLINE
  5
242
  8
Layer_2
  62
1
  70
1
  66
1
  10
0
  20
0
  30
0
  0
VERTEX
  5
242
  8
Layer_2
  10
171.22188
  20
73.306786
  0
VERTEX
  5
243
  8
Layer_2
  10
171.22569
  20
73.306786
  0
VERTEX
  5
244
  8
Layer_2
  10
171.22949
  20
73.306786
  0
VERTEX
  5
245
  8
Layer_2
  10
171.23329
  20
73.306786
  0
VERTEX
  5
246
  8
Layer_2
  10
171.23709
  20
73.310593
  0
VERTEX
  5
247
  8
Layer_2
  10
171.24471
  20
73.314392
  0
VERTEX
  5
248
  8
Layer_2
  10
171.2523
  20
73.314392
  0
VERTEX
  5
249
  8
Layer_2
  10
171.33597
  20
73.341011
  0
VERTEX
  5
24a
  8
Layer_2
  10
171.33977
  20
73.341011
  0
VERTEX
  5
24b
  8
Layer_2
  10
171.34357
  20
73.341011
  0
VERTEX
  5
24c
  8
Layer_2
  10
171.34737
  20
73.34481
  0
VERTEX
  5
24d
  8
Layer_2
  10
171.35498
  20
73.348618
  0
VERTEX
  5
24e
  8
Layer_2
  10
171.36258
  20
73.352417
  0
VERTEX
  5
24f
  8
Layer_2
  10
171.36638
  20
73.356224
  0
VERTEX
  5
250
  8
Layer_2
  10
171.37399
  20
73.360023
  0
VERTEX
  5
251
  8
Layer_2
  10
171.37779
  20
73.363823
  0
VERTEX
  5
252
  8
Layer_2
  10
171.38159
  20
73.36763
  0
VERTEX
  5
253
  8
Layer_2
  10
171.38919
  20
73.371429
  0
VERTEX
  5
254
  8
Layer_2
  10
171.3968
  20
73.375237
  0
VERTEX
  5
255
  8
Layer_2
  10
171.4006
  20
73.379036
  0
VERTEX
  5
256
  8
Layer_2
  10
171.4044
  20
73.382843
  0
VERTEX
  5
257
  8
Layer_2
  10
171.4082
  20
73.382843
  0
VERTEX
  5
258
  8
Layer_2
  10
171.41202
  20
73.386642
  0
VERTEX
  5
259
  8
Layer_2
  10
171.41582
  20
73.386642
  0
VERTEX
  5
25a
  8
Layer_2
  10
171.41962
  20
73.390442
  0
VERTEX
  5
25b
  8
Layer_2
  10
171.42342
  20
73.394249
  0
VERTEX
  5
25c
  8
Layer_2
  10
171.43103
  20
73.401855
  42
0.068077178
  0
VERTEX
  5
25d
  8
Layer_2
  10
171.61356
  20
73.253548
  0
VERTEX
  5
25e
  8
Layer_2
  10
171.61356
  20
73.238342
  0
VERTEX
  5
25f
  8
Layer_2
  10
171.59074
  20
73.21933
  0
VERTEX
  5
260
  8
Layer_2
  10
171.57553
  20
73.207916
  0
VERTEX
  5
261
  8
Layer_2
  10
171.53369
  20
73.169891
  0
VERTEX
  5
262
  8
Layer_2
  10
171.52609
  20
73.162285
  0
VERTEX
  5
263
  8
Layer_2
  10
171.51849
  20
73.154678
  0
VERTEX
  5
264
  8
Layer_2
  10
171.51088
  20
73.147079
  0
VERTEX
  5
265
  8
Layer_2
  10
171.50328
  20
73.135666
  0
VERTEX
  5
266
  8
Layer_2
  10
171.49187
  20
73.120461
  0
VERTEX
  5
267
  8
Layer_2
  10
171.48045
  20
73.105247
  0
VERTEX
  5
268
  8
Layer_2
  10
171.46906
  20
73.086235
  0
VERTEX
  5
269
  8
Layer_2
  10
171.45764
  20
73.067223
  0
VERTEX
  5
26a
  8
Layer_2
  10
171.42342
  20
73.055817
  0
VERTEX
  5
26b
  8
Layer_2
  10
171.3968
  20
73.078629
  0
VERTEX
  5
26c
  8
Layer_2
  10
171.37018
  20
73.101448
  0
VERTEX
  5
26d
  8
Layer_2
  10
171.35878
  20
73.112854
  0
VERTEX
  5
26e
  8
Layer_2
  10
171.34737
  20
73.12426
  0
VERTEX
  5
26f
  8
Layer_2
  10
171.32455
  20
73.147079
  0
VERTEX
  5
270
  8
Layer_2
  10
171.30174
  20
73.169891
  0
VERTEX
  5
271
  8
Layer_2
  10
171.27892
  20
73.192711
  0
VERTEX
  5
272
  8
Layer_2
  10
171.2561
  20
73.215523
  0
VERTEX
  5
273
  8
Layer_2
  10
171.23329
  20
73.238342
  0
VERTEX
  5
274
  8
Layer_2
  10
171.22949
  20
73.242142
  0
VERTEX
  5
275
  8
Layer_2
  10
171.22569
  20
73.245949
  0
VERTEX
  5
276
  8
Layer_2
  10
171.22188
  20
73.253548
  0
VERTEX
  5
277
  8
Layer_2
  10
171.21808
  20
73.261154
  0
VERTEX
  5
278
  8
Layer_2
  10
171.21428
  20
73.268761
  0
VERTEX
  5
279
  8
Layer_2
  10
171.21428
  20
73.276367
  0
VERTEX
  5
27a
  8
Layer_2
  10
171.21428
  20
73.280167
  0
VERTEX
  5
27b
  8
Layer_2
  10
171.21428
  20
73.283974
  0
VERTEX
  5
27c
  8
Layer_2
  10
171.21428
  20
73.287773
  0
VERTEX
  5
27d
  8
Layer_2
  10
171.21428
  20
73.29158
  0
VERTEX
  5
27e
  8
Layer_2
  10
171.21428
  20
73.29538
  0
VERTEX
  5
27f
  8
Layer_2
  10
171.21808
  20
73.299179
  0
VERTEX
  5
280
  8
Layer_2
  10
171.21808
  20
73.302986
  0
VERTEX
  5
281
  8
Layer_2
  10
171.21808
  20
73.306786
  0
SEQEND
  0
POLYLINE
  5
283
  8
Layer_2
  62
1
  66
1
  10
0
  20
0
  30
0
  0
VERTEX
  5
283
  8
Layer_2
  10
173.03192
  20
75.094017
  0
VERTEX
  5
284
  8
Layer_2
  10
173.02812
  20
75.101624
  0
SEQEND
  0
POLYLINE
  5
286
  8
Layer_2
  62
1
  66
1
  10
0
  20
0
  30
0
  0
VERTEX
  5
286
  8
Layer_2
  10
173.30191
  20
74.542641
  0
VERTEX
  5
287
  8
Layer_2
  10
173.30573
  20
74.535034
  0
SEQEND
  0
POLYLINE
  5
289
  8
Layer_2
  62
1
  66
1
  10
0
  20
0
  30
0
  0
VERTEX
  5
289
  8
Layer_2
  10
173.2753
  20
74.588272
  0
VERTEX
  5
28a
  8
Layer_2
  10
173.2791
  20
74.580666
  0
SEQEND
  0
POLYLINE
  5
28c
  8
Layer_2
  62
1
  66
1
  10
0
  20
0
  30
0
  0
VERTEX
  5
28c
  8
Layer_2
  10
173.14221
  20
75.006561
  0
VERTEX
  5
28d
  8
Layer_2
  10
173.1384
  20
75.006561
  0
SEQEND
  0
POLYLINE
  5
28f
  8
Layer_2
  62
1
  66
1
  10
0
  20
0
  30
0
  0
VERTEX
  5
28f
  8
Layer_2
  10
173.03954
  20
75.071198
  0
VERTEX
  5
290
  8
Layer_2
  10
173.03574
  20
75.078804
  0
SEQEND
  0
POLYLINE
  5
292
  8
Layer_2
  62
1
  66
1
  10
0
  20
0
  30
0
  0
VERTEX
  5
292
  8
Layer_2
  10
172.99771
  20
74.797417
  0
VERTEX
  5
293
  8
Layer_2
  10
172.9901
  20
74.79361
  0
SEQEND
  0
POLYLINE
  5
295
  8
Layer_2
  62
1
  66
1
  10
0
  20
0
  30
0
  0
VERTEX
  5
295
  8
Layer_2
  10
172.18015
  20
74.052101
  0
VERTEX
  5
296
  8
Layer_2
  10
172.17635
  20
74.048294
  0
SEQEND
  0
POLYLINE
  5
298
  8
Layer_2
  62
1
  70
1
  66
1
  10
0
  20
0
  30
0
  0
VERTEX
  5
298
  8
Layer_2
  10
172.33224
  20
78.155125
  0
VERTEX
  5
299
  8
Layer_2
  10
172.16897
  20
78.368487
  0
VERTEX
  5
29a
  8
Layer_2
  10
171.99286
  20
78.520889
  0
VERTEX
  5
29b
  8
Layer_2
  10
171.8082
  20
78.61233
  0
VERTEX
  5
29c
  8
Layer_2
  10
171.61926
  20
78.64281
  0
VERTEX
  5
29d
  8
Layer_2
  10
171.43031
  20
78.61233
  0
VERTEX
  5
29e
  8
Layer_2
  10
171.24565
  20
78.520889
  0
VERTEX
  5
29f
  8
Layer_2
  10
171.06954
  20
78.368487
  0
VERTEX
  5
2a0
  8
Layer_2
  10
170.90627
  20
78.155125
  0
VERTEX
  5
2a1
  8
Layer_2
  10
170.60966
  20
77.691208
  0
VERTEX
  5
2a2
  8
Layer_2
  10
170.58304
  20
77.695007
  42
0.028258988
  0
VERTEX
  5
2a3
  8
Layer_2
  10
170.16095
  20
77.5429
  0
VERTEX
  5
2a4
  8
Layer_2
  10
170.22275
  20
77.469227
  0
VERTEX
  5
2a5
  8
Layer_2
  10
170.30165
  20
77.375588
  42
-0.40594266
  0
VERTEX
  5
2a6
  8
Layer_2
  10
170.28264
  20
77.242493
  0
VERTEX
  5
2a7
  8
Layer_2
  10
170.23516
  20
77.22182
  0
VERTEX
  5
2a8
  8
Layer_2
  10
170.19375
  20
77.228237
  0
VERTEX
  5
2a9
  8
Layer_2
  10
170.16446
  20
77.244635
  0
VERTEX
  5
2aa
  8
Layer_2
  10
170.15335
  20
77.253904
  0
VERTEX
  5
2ab
  8
Layer_2
  10
169.95561
  20
77.444038
  42
0.028249881
  0
VERTEX
  5
2ac
  8
Layer_2
  10
169.56393
  20
77.219681
  42
-0.080758706
  0
VERTEX
  5
2ad
  8
Layer_2
  10
169.72745
  20
77.078979
  42
-0.41258632
  0
VERTEX
  5
2ae
  8
Layer_2
  10
169.73126
  20
76.945892
  0
VERTEX
  5
2af
  8
Layer_2
  10
169.6886
  20
76.916838
  0
VERTEX
  5
2b0
  8
Layer_2
  10
169.64665
  20
76.915947
  0
VERTEX
  5
2b1
  8
Layer_2
  10
169.61469
  20
76.927176
  0
VERTEX
  5
2b2
  8
Layer_2
  10
169.60197
  20
76.934484
  0
VERTEX
  5
2b3
  8
Layer_2
  10
169.37381
  20
77.086594
  42
0.026936503
  0
VERTEX
  5
2b4
  8
Layer_2
  10
169.02777
  20
76.801392
  42
-0.013920866
  0
VERTEX
  5
2b5
  8
Layer_2
  10
169.2141
  20
76.691116
  42
-0.41589816
  0
VERTEX
  5
2b6
  8
Layer_2
  10
169.24072
  20
76.561829
  0
VERTEX
  5
2b7
  8
Layer_2
  10
169.20346
  20
76.526
  0
VERTEX
  5
2b8
  8
Layer_2
  10
169.16229
  20
76.517622
  0
VERTEX
  5
2b9
  8
Layer_2
  10
169.12896
  20
76.522791
  0
VERTEX
  5
2ba
  8
Layer_2
  10
169.11523
  20
76.527604
  0
VERTEX
  5
2bb
  8
Layer_2
  10
168.86426
  20
76.637878
  42
0.027097031
  0
VERTEX
  5
2bc
  8
Layer_2
  10
168.57146
  20
76.295647
  42
-0.040038193
  0
VERTEX
  5
2bd
  8
Layer_2
  10
168.77299
  20
76.219589
  42
-0.40340479
  0
VERTEX
  5
2be
  8
Layer_2
  10
168.82243
  20
76.094109
  0
VERTEX
  5
2bf
  8
Layer_2
  10
168.79118
  20
76.052099
  0
VERTEX
  5
2c0
  8
Layer_2
  10
168.75208
  20
76.037542
  0
VERTEX
  5
2c1
  8
Layer_2
  10
168.71869
  20
76.037958
  0
VERTEX
  5
2c2
  8
Layer_2
  10
168.70454
  20
76.04087
  0
VERTEX
  5
2c3
  8
Layer_2
  10
168.43837
  20
76.105515
  42
0.028258825
  0
VERTEX
  5
2c4
  8
Layer_2
  10
168.21021
  20
75.717644
  42
-0.031091045
  0
VERTEX
  5
2c5
  8
Layer_2
  10
168.42316
  20
75.679619
  42
-0.39528218
  0
VERTEX
  5
2c6
  8
Layer_2
  10
168.49161
  20
75.565544
  0
VERTEX
  5
2c7
  8
Layer_2
  10
168.46855
  20
75.51896
  0
VERTEX
  5
2c8
  8
Layer_2
  10
168.43266
  20
75.498046
  0
VERTEX
  5
2c9
  8
Layer_2
  10
168.39963
  20
75.492817
  0
VERTEX
  5
2ca
  8
Layer_2
  10
168.38513
  20
75.493293
  0
VERTEX
  5
2cb
  8
Layer_2
  10
168.11134
  20
75.512306
  42
0.032334537
  0
VERTEX
  5
2cc
  8
Layer_2
  10
167.94783
  20
75.067398
  0
VERTEX
  5
2cd
  8
Layer_2
  10
168.16458
  20
75.067398
  42
-0.41421356
  0
VERTEX
  5
2ce
  8
Layer_2
  10
168.25204
  20
74.968529
  0
VERTEX
  5
2cf
  8
Layer_2
  10
168.23778
  20
74.918978
  0
VERTEX
  5
2d0
  8
Layer_2
  10
168.20641
  20
74.891528
  0
VERTEX
  5
2d1
  8
Layer_2
  10
168.17504
  20
74.879764
  0
VERTEX
  5
2d2
  8
Layer_2
  10
168.16078
  20
74.877268
  0
VERTEX
  5
2d3
  8
Layer_2
  10
167.88699
  20
74.846848
  42
0.026271758
  0
VERTEX
  5
2d4
  8
Layer_2
  10
167.80713
  20
74.405746
  42
-0.01918132
  0
VERTEX
  5
2d5
  8
Layer_2
  10
168.02008
  20
74.443771
  42
-0.36760674
  0
VERTEX
  5
2d6
  8
Layer_2
  10
168.11894
  20
74.379128
  0
VERTEX
  5
2d7
  8
Layer_2
  10
168.45738
  20
74.341103
  0
VERTEX
  5
2d8
  8
Layer_2
  10
168.40034
  20
74.24984
  0
VERTEX
  5
2d9
  8
Layer_2
  10
168.09613
  20
74.284058
  0
VERTEX
  5
2da
  8
Layer_2
  10
168.06286
  20
74.260294
  0
VERTEX
  5
2db
  8
Layer_2
  10
168.04669
  20
74.253639
  0
VERTEX
  5
2dc
  8
Layer_2
  10
167.78432
  20
74.173782
  42
0.011886406
  0
VERTEX
  5
2dd
  8
Layer_2
  10
167.77672
  20
73.938019
  42
0.013135696
  0
VERTEX
  5
2de
  8
Layer_2
  10
167.78432
  20
73.725075
  42
0.0083570267
  0
VERTEX
  5
2df
  8
Layer_2
  10
167.98586
  20
73.797325
  42
-0.34531427
  0
VERTEX
  5
2e0
  8
Layer_2
  10
168.08853
  20
73.7593
  0
VERTEX
  5
2e1
  8
Layer_2
  10
167.97444
  20
73.580574
  0
VERTEX
  5
2e2
  8
Layer_2
  10
167.79953
  20
73.493118
  42
0.017356583
  0
VERTEX
  5
2e3
  8
Layer_2
  10
167.82234
  20
73.337212
  0
VERTEX
  5
2e4
  8
Layer_2
  10
166.94774
  20
71.956856
  0
VERTEX
  5
2e5
  8
Layer_2
  10
166.82501
  20
71.71935
  0
VERTEX
  5
2e6
  8
Layer_2
  10
166.76592
  20
71.497751
  0
VERTEX
  5
2e7
  8
Layer_2
  10
166.76779
  20
71.296918
  0
VERTEX
  5
2e8
  8
Layer_2
  10
166.82795
  20
71.121708
  0
VERTEX
  5
2e9
  8
Layer_2
  10
166.94373
  20
70.976979
  0
VERTEX
  5
2ea
  8
Layer_2
  10
167.11244
  20
70.867587
  0
VERTEX
  5
2eb
  8
Layer_2
  10
167.33142
  20
70.798389
  0
VERTEX
  5
2ec
  8
Layer_2
  10
167.59799
  20
70.774244
  0
VERTEX
  5
2ed
  8
Layer_2
  10
169.54492
  20
70.774246
  0
VERTEX
  5
2ee
  8
Layer_2
  10
169.52211
  20
70.675377
  42
0.028251223
  0
VERTEX
  5
2ef
  8
Layer_2
  10
169.90997
  20
70.44722
  42
-0.03107294
  0
VERTEX
  5
2f0
  8
Layer_2
  10
169.948
  20
70.660164
  42
-0.43044535
  0
VERTEX
  5
2f1
  8
Layer_2
  10
170.06209
  20
70.728615
  0
VERTEX
  5
2f2
  8
Layer_2
  10
170.10867
  20
70.705559
  0
VERTEX
  5
2f3
  8
Layer_2
  10
170.12958
  20
70.669672
  0
VERTEX
  5
2f4
  8
Layer_2
  10
170.13481
  20
70.636637
  0
VERTEX
  5
2f5
  8
Layer_2
  10
170.13434
  20
70.622139
  0
VERTEX
  5
2f6
  8
Layer_2
  10
170.11533
  20
70.348351
  42
0.032309556
  0
VERTEX
  5
2f7
  8
Layer_2
  10
170.56023
  20
70.184837
  0
VERTEX
  5
2f8
  8
Layer_2
  10
170.56023
  20
70.401588
  42
-0.41421356
  0
VERTEX
  5
2f9
  8
Layer_2
  10
170.65909
  20
70.489044
  0
VERTEX
  5
2fa
  8
Layer_2
  10
170.70865
  20
70.474787
  0
VERTEX
  5
2fb
  8
Layer_2
  10
170.7361
  20
70.443416
  0
VERTEX
  5
2fc
  8
Layer_2
  10
170.74787
  20
70.412044
  0
VERTEX
  5
2fd
  8
Layer_2
  10
170.75037
  20
70.397784
  0
VERTEX
  5
2fe
  8
Layer_2
  10
170.78078
  20
70.123993
  42
0.026267635
  0
VERTEX
  5
2ff
  8
Layer_2
  10
171.22188
  20
70.044144
  42
-0.019062324
  0
VERTEX
  5
300
  8
Layer_2
  10
171.18385
  20
70.257088
  42
-0.3675884
  0
VERTEX
  5
301
  8
Layer_2
  10
171.2485
  20
70.355957
  0
VERTEX
  5
302
  8
Layer_2
  10
171.29413
  20
70.774246
  0
VERTEX
  5
303
  8
Layer_2
  10
171.38919
  20
70.774246
  0
VERTEX
  5
304
  8
Layer_2
  10
171.33977
  20
70.336945
  0
VERTEX
  5
305
  8
Layer_2
  10
171.36353
  20
70.30367
  0
VERTEX
  5
306
  8
Layer_2
  10
171.37018
  20
70.287509
  0
VERTEX
  5
307
  8
Layer_2
  10
171.44624
  20
70.025131
  42
0.01189843
  0
VERTEX
  5
308
  8
Layer_2
  10
171.68201
  20
70.017525
  42
0.013147779
  0
VERTEX
  5
309
  8
Layer_2
  10
171.89494
  20
70.025131
  42
0.0084531812
  0
VERTEX
  5
30a
  8
Layer_2
  10
171.82269
  20
70.226669
  42
-0.41262037
  0
VERTEX
  5
30b
  8
Layer_2
  10
171.88734
  20
70.344551
  0
VERTEX
  5
30c
  8
Layer_2
  10
171.93945
  20
70.349064
  0
VERTEX
  5
30d
  8
Layer_2
  10
171.97622
  20
70.329338
  0
VERTEX
  5
30e
  8
Layer_2
  10
171.99803
  20
70.303907
  0
VERTEX
  5
30f
  8
Layer_2
  10
172.00522
  20
70.291311
  0
VERTEX
  5
310
  8
Layer_2
  10
172.12691
  20
70.047943
  42
0.031794413
  0
VERTEX
  5
311
  8
Layer_2
  10
172.57181
  20
70.123993
  0
VERTEX
  5
312
  8
Layer_2
  10
172.52427
  20
70.208605
  0
VERTEX
  5
313
  8
Layer_2
  10
172.46533
  20
70.310324
  42
-0.41245228
  0
VERTEX
  5
314
  8
Layer_2
  10
172.50717
  20
70.435814
  0
VERTEX
  5
315
  8
Layer_2
  10
172.55726
  20
70.44811
  0
VERTEX
  5
316
  8
Layer_2
  10
172.59701
  20
70.434385
  0
VERTEX
  5
317
  8
Layer_2
  10
172.62321
  20
70.412817
  0
VERTEX
  5
318
  8
Layer_2
  10
172.63266
  20
70.401587
  0
VERTEX
  5
319
  8
Layer_2
  10
172.79617
  20
70.181038
  42
0.028250036
  0
VERTEX
  5
31a
  8
Layer_2
  10
173.21826
  20
70.333138
  0
VERTEX
  5
31b
  8
Layer_2
  10
173.15694
  20
70.406816
  0
VERTEX
  5
31c
  8
Layer_2
  10
173.08136
  20
70.500455
  42
-0.40594177
  0
VERTEX
  5
31d
  8
Layer_2
  10
173.10037
  20
70.633545
  0
VERTEX
  5
31e
  8
Layer_2
  10
173.14785
  20
70.654224
  0
VERTEX
  5
31f
  8
Layer_2
  10
173.18926
  20
70.647807
  0
VERTEX
  5
320
  8
Layer_2
  10
173.21855
  20
70.631408
  0
VERTEX
  5
321
  8
Layer_2
  10
173.22966
  20
70.622139
  0
VERTEX
  5
322
  8
Layer_2
  10
173.4274
  20
70.432007
  42
0.028249552
  0
VERTEX
  5
323
  8
Layer_2
  10
173.81908
  20
70.656364
  42
0.024568653
  0
VERTEX
  5
324
  8
Layer_2
  10
173.67076
  20
70.781853
  0
VERTEX
  5
325
  8
Layer_2
  10
175.65953
  20
70.781853
  0
VERTEX
  5
326
  8
Layer_2
  10
175.93113
  20
70.802229
  0
VERTEX
  5
327
  8
Layer_2
  10
176.15388
  20
70.868596
  0
VERTEX
  5
328
  8
Layer_2
  10
176.3253
  20
70.975961
  0
VERTEX
  5
329
  8
Layer_2
  10
176.44288
  20
71.119331
  0
VERTEX
  5
32a
  8
Layer_2
  10
176.50414
  20
71.293717
  0
VERTEX
  5
32b
  8
Layer_2
  10
176.50657
  20
71.494127
  0
VERTEX
  5
32c
  8
Layer_2
  10
176.44769
  20
71.71557
  0
VERTEX
  5
32d
  8
Layer_2
  10
176.325
  20
71.953055
  0
VERTEX
  5
32e
  8
Layer_2
  10
175.54926
  20
73.177498
  42
0.019477593
  0
VERTEX
  5
32f
  8
Layer_2
  10
175.59489
  20
73.462692
  42
-0.039113737
  0
VERTEX
  5
330
  8
Layer_2
  10
175.38956
  20
73.428474
  0
VERTEX
  5
331
  8
Layer_2
  10
175.28688
  20
73.588181
  0
VERTEX
  5
332
  8
Layer_2
  10
175.29829
  20
73.588181
  0
VERTEX
  5
333
  8
Layer_2
  10
175.33156
  20
73.611947
  0
VERTEX
  5
334
  8
Layer_2
  10
175.34772
  20
73.618601
  0
VERTEX
  5
335
  8
Layer_2
  10
175.61011
  20
73.698456
  42
0.011886406
  0
VERTEX
  5
336
  8
Layer_2
  10
175.61771
  20
73.934219
  42
0.013135696
  0
VERTEX
  5
337
  8
Layer_2
  10
175.61011
  20
74.147163
  42
0.0083685443
  0
VERTEX
  5
338
  8
Layer_2
  10
175.40857
  20
74.074913
  42
-0.41265656
  0
VERTEX
  5
339
  8
Layer_2
  10
175.29068
  20
74.139557
  0
VERTEX
  5
33a
  8
Layer_2
  10
175.28617
  20
74.191668
  0
VERTEX
  5
33b
  8
Layer_2
  10
175.30589
  20
74.228446
  0
VERTEX
  5
33c
  8
Layer_2
  10
175.33132
  20
74.250252
  0
VERTEX
  5
33d
  8
Layer_2
  10
175.34392
  20
74.257442
  0
VERTEX
  5
33e
  8
Layer_2
  10
175.58728
  20
74.379128
  42
0.033258494
  0
VERTEX
  5
33f
  8
Layer_2
  10
175.51123
  20
74.824028
  0
VERTEX
  5
340
  8
Layer_2
  10
175.42663
  20
74.775073
  0
VERTEX
  5
341
  8
Layer_2
  10
175.32491
  20
74.717558
  42
-0.41256651
  0
VERTEX
  5
342
  8
Layer_2
  10
175.19942
  20
74.759384
  0
VERTEX
  5
343
  8
Layer_2
  10
175.18712
  20
74.809475
  0
VERTEX
  5
344
  8
Layer_2
  10
175.20085
  20
74.849224
  0
VERTEX
  5
345
  8
Layer_2
  10
175.22241
  20
74.875426
  0
VERTEX
  5
346
  8
Layer_2
  10
175.23364
  20
74.884873
  0
VERTEX
  5
347
  8
Layer_2
  10
175.45419
  20
75.048386
  42
0.02826618
  0
VERTEX
  5
348
  8
Layer_2
  10
175.30209
  20
75.470474
  0
VERTEX
  5
349
  8
Layer_2
  10
175.22842
  20
75.409159
  0
VERTEX
  5
34a
  8
Layer_2
  10
175.13478
  20
75.333582
  42
-0.40585409
  0
VERTEX
  5
34b
  8
Layer_2
  10
175.00168
  20
75.352592
  0
VERTEX
  5
34c
  8
Layer_2
  10
174.981
  20
75.400069
  0
VERTEX
  5
34d
  8
Layer_2
  10
174.98742
  20
75.441481
  0
VERTEX
  5
34e
  8
Layer_2
  10
175.00382
  20
75.470773
  0
VERTEX
  5
34f
  8
Layer_2
  10
175.01309
  20
75.481884
  0
VERTEX
  5
350
  8
Layer_2
  10
175.20322
  20
75.679619
  42
0.028281511
  0
VERTEX
  5
351
  8
Layer_2
  10
174.97887
  20
76.071289
  42
-0.080750408
  0
VERTEX
  5
352
  8
Layer_2
  10
174.83817
  20
75.907776
  42
-0.41250789
  0
VERTEX
  5
353
  8
Layer_2
  10
174.70508
  20
75.903976
  0
VERTEX
  5
354
  8
Layer_2
  10
174.67603
  20
75.946636
  0
VERTEX
  5
355
  8
Layer_2
  10
174.67514
  20
75.988583
  0
VERTEX
  5
356
  8
Layer_2
  10
174.68637
  20
76.020549
  0
VERTEX
  5
357
  8
Layer_2
  10
174.69368
  20
76.033264
  0
VERTEX
  5
358
  8
Layer_2
  10
174.84578
  20
76.261421
  42
0.026940336
  0
VERTEX
  5
359
  8
Layer_2
  10
174.56058
  20
76.60746
  42
-0.013982618
  0
VERTEX
  5
35a
  8
Layer_2
  10
174.4503
  20
76.421127
  42
-0.41585102
  0
VERTEX
  5
35b
  8
Layer_2
  10
174.32101
  20
76.394516
  0
VERTEX
  5
35c
  8
Layer_2
  10
174.28519
  20
76.431766
  0
VERTEX
  5
35d
  8
Layer_2
  10
174.27681
  20
76.472942
  0
VERTEX
  5
35e
  8
Layer_2
  10
174.28198
  20
76.506274
  0
VERTEX
  5
35f
  8
Layer_2
  10
174.28679
  20
76.52
  0
VERTEX
  5
360
  8
Layer_2
  10
174.39706
  20
76.770973
  42
0.027099546
  0
VERTEX
  5
361
  8
Layer_2
  10
174.05484
  20
77.063774
  42
-0.039861488
  0
VERTEX
  5
362
  8
Layer_2
  10
173.97878
  20
76.862236
  42
-0.40347817
  0
VERTEX
  5
363
  8
Layer_2
  10
173.85329
  20
76.812798
  0
VERTEX
  5
364
  8
Layer_2
  10
173.81128
  20
76.844053
  0
VERTEX
  5
365
  8
Layer_2
  10
173.79673
  20
76.883149
  0
VERTEX
  5
366
  8
Layer_2
  10
173.79715
  20
76.91654
  0
VERTEX
  5
367
  8
Layer_2
  10
173.80006
  20
76.930681
  0
VERTEX
  5
368
  8
Layer_2
  10
173.8647
  20
77.196869
  42
0.028248463
  0
VERTEX
  5
369
  8
Layer_2
  10
173.47684
  20
77.425018
  42
-0.031072699
  0
VERTEX
  5
36a
  8
Layer_2
  10
173.43881
  20
77.212074
  42
-0.39519361
  0
VERTEX
  5
36b
  8
Layer_2
  10
173.32474
  20
77.143631
  0
VERTEX
  5
36c
  8
Layer_2
  10
173.27815
  20
77.166681
  0
VERTEX
  5
36d
  8
Layer_2
  10
173.25724
  20
77.202568
  0
VERTEX
  5
36e
  8
Layer_2
  10
173.25201
  20
77.235604
  0
VERTEX
  5
36f
  8
Layer_2
  10
173.25249
  20
77.250101
  0
VERTEX
  5
370
  8
Layer_2
  10
173.2715
  20
77.523888
  42
0.032315746
  0
VERTEX
  5
371
  8
Layer_2
  10
172.82658
  20
77.687401
  0
VERTEX
  5
372
  8
Layer_2
  10
172.82658
  20
77.470657
  0
VERTEX
  5
373
  8
Layer_2
  10
172.82658
  20
77.386993
  0
VERTEX
  5
374
  8
Layer_2
  10
172.33224
  20
78.155121
  0
SEQEND
  0
POLYLINE
  5
376
  8
Layer_2
  62
1
  70
1
  66
1
  10
0
  20
0
  30
0
  0
VERTEX
  5
376
  8
Layer_2
  10
178.74727
  20
72.892302
  0
VERTEX
  5
377
  8
Layer_2
  10
178.79599
  20
72.885172
  0
VERTEX
  5
378
  8
Layer_2
  10
178.91743
  20
72.869486
  0
VERTEX
  5
379
  8
Layer_2
  10
179.07453
  20
72.8538
  0
VERTEX
  5
37a
  8
Layer_2
  10
179.23019
  20
72.84667
  0
VERTEX
  5
37b
  8
Layer_2
  10
179.4552
  20
72.879884
  0
VERTEX
  5
37c
  8
Layer_2
  10
179.61283
  20
72.978336
  0
VERTEX
  5
37d
  8
Layer_2
  10
179.70558
  20
73.140244
  0
VERTEX
  5
37e
  8
Layer_2
  10
179.73595
  20
73.363826
  0
VERTEX
  5
37f
  8
Layer_2
  10
179.70748
  20
73.551758
  0
VERTEX
  5
380
  8
Layer_2
  10
179.62234
  20
73.678017
  0
VERTEX
  5
381
  8
Layer_2
  10
179.48087
  20
73.76221
  0
VERTEX
  5
382
  8
Layer_2
  10
179.28343
  20
73.823943
  0
VERTEX
  5
383
  8
Layer_2
  10
179.11891
  20
73.871
  0
VERTEX
  5
384
  8
Layer_2
  10
179.00537
  20
73.926614
  0
VERTEX
  5
385
  8
Layer_2
  10
178.93959
  20
74.007895
  0
VERTEX
  5
386
  8
Layer_2
  10
178.91838
  20
74.131955
  0
VERTEX
  5
387
  8
Layer_2
  10
178.93912
  20
74.260947
  0
VERTEX
  5
388
  8
Layer_2
  10
179.00156
  20
74.348228
  0
VERTEX
  5
389
  8
Layer_2
  10
179.10607
  20
74.397722
  0
VERTEX
  5
38a
  8
Layer_2
  10
179.25301
  20
74.413348
  0
VERTEX
  5
38b
  8
Layer_2
  10
179.38913
  20
74.408001
  0
VERTEX
  5
38c
  8
Layer_2
  10
179.52917
  20
74.396236
  0
VERTEX
  5
38d
  8
Layer_2
  10
179.63856
  20
74.384472
  0
VERTEX
  5
38e
  8
Layer_2
  10
179.68271
  20
74.379124
  0
VERTEX
  5
38f
  8
Layer_2
  10
179.69031
  20
74.531227
  0
VERTEX
  5
390
  8
Layer_2
  10
179.64693
  20
74.538954
  0
VERTEX
  5
391
  8
Layer_2
  10
179.53725
  20
74.555946
  0
VERTEX
  5
392
  8
Layer_2
  10
179.39193
  20
74.572939
  0
VERTEX
  5
393
  8
Layer_2
  10
179.24161
  20
74.580663
  0
VERTEX
  5
394
  8
Layer_2
  10
179.01962
  20
74.553035
  0
VERTEX
  5
395
  8
Layer_2
  10
178.85753
  20
74.468011
  0
VERTEX
  5
396
  8
Layer_2
  10
178.75819
  20
74.322383
  0
VERTEX
  5
397
  8
Layer_2
  10
178.72444
  20
74.112942
  0
VERTEX
  5
398
  8
Layer_2
  10
178.75546
  20
73.932021
  0
VERTEX
  5
399
  8
Layer_2
  10
178.84708
  20
73.806356
  0
VERTEX
  5
39a
  8
Layer_2
  10
178.99716
  20
73.719906
  0
VERTEX
  5
39b
  8
Layer_2
  10
179.20358
  20
73.656627
  0
VERTEX
  5
39c
  8
Layer_2
  10
179.35331
  20
73.615927
  0
VERTEX
  5
39d
  8
Layer_2
  10
179.46025
  20
73.559185
  0
VERTEX
  5
39e
  8
Layer_2
  10
179.52442
  20
73.473211
  0
VERTEX
  5
39f
  8
Layer_2
  10
179.54581
  20
73.344813
  0
VERTEX
  5
3a0
  8
Layer_2
  10
179.52697
  20
73.199482
  0
VERTEX
  5
3a1
  8
Layer_2
  10
179.46928
  20
73.094791
  0
VERTEX
  5
3a2
  8
Layer_2
  10
179.37095
  20
73.031453
  0
VERTEX
  5
3a3
  8
Layer_2
  10
179.23019
  20
73.010182
  0
VERTEX
  5
3a4
  8
Layer_2
  10
179.08914
  20
73.01553
  0
VERTEX
  5
3a5
  8
Layer_2
  10
178.93454
  20
73.027294
  0
VERTEX
  5
3a6
  8
Layer_2
  10
178.80988
  20
73.039059
  0
VERTEX
  5
3a7
  8
Layer_2
  10
178.75867
  20
73.044406
  0
VERTEX
  5
3a8
  8
Layer_2
  10
178.74727
  20
72.892303
  0
SEQEND
  0
POLYLINE
  5
3aa
  8
Layer_2
  62
1
  70
1
  66
1
  10
0
  20
0
  30
0
  0
VERTEX
  5
3aa
  8
Layer_2
  10
183.13548
  20
74.557846
  0
VERTEX
  5
3ab
  8
Layer_2
  10
183.13548
  20
73.375237
  0
VERTEX
  5
3ac
  8
Layer_2
  10
183.11433
  20
73.209701
  0
VERTEX
  5
3ad
  8
Layer_2
  10
183.04897
  20
73.097642
  0
VERTEX
  5
3ae
  8
Layer_2
  10
182.93656
  20
73.034067
  0
VERTEX
  5
3af
  8
Layer_2
  10
182.77423
  20
73.013984
  0
VERTEX
  5
3b0
  8
Layer_2
  10
182.61351
  20
73.034067
  0
VERTEX
  5
3b1
  8
Layer_2
  10
182.50092
  20
73.097642
  0
VERTEX
  5
3b2
  8
Layer_2
  10
182.43467
  20
73.209701
  0
VERTEX
  5
3b3
  8
Layer_2
  10
182.41298
  20
73.375233
  0
VERTEX
  5
3b4
  8
Layer_2
  10
182.41298
  20
74.557846
  0
VERTEX
  5
3b5
  8
Layer_2
  10
182.40918
  20
74.557846
  0
VERTEX
  5
3b6
  8
Layer_2
  10
182.22285
  20
74.557846
  0
VERTEX
  5
3b7
  8
Layer_2
  10
182.22285
  20
73.386642
  0
VERTEX
  5
3b8
  8
Layer_2
  10
182.25601
  20
73.147256
  0
VERTEX
  5
3b9
  8
Layer_2
  10
182.3569
  20
72.980237
  0
VERTEX
  5
3ba
  8
Layer_2
  10
182.52766
  20
72.882379
  0
VERTEX
  5
3bb
  8
Layer_2
  10
182.77043
  20
72.850472
  0
VERTEX
  5
3bc
  8
Layer_2
  10
183.01541
  20
72.882379
  0
VERTEX
  5
3bd
  8
Layer_2
  10
183.18729
  20
72.980237
  0
VERTEX
  5
3be
  8
Layer_2
  10
183.2886
  20
73.147256
  0
VERTEX
  5
3bf
  8
Layer_2
  10
183.32181
  20
73.386642
  0
VERTEX
  5
3c0
  8
Layer_2
  10
183.32181
  20
74.557846
  0
SEQEND
  0
POLYLINE
  5
3c2
  8
Layer_2
  62
1
  70
1
  66
1
  10
0
  20
0
  30
0
  0
VERTEX
  5
3c2
  8
Layer_2
  10
184.08994
  20
75.386818
  0
VERTEX
  5
3c3
  8
Layer_2
  10
183.78954
  20
76.029457
  0
VERTEX
  5
3c4
  8
Layer_2
  10
183.37505
  20
76.029457
  0
VERTEX
  5
3c5
  8
Layer_2
  10
183.37505
  20
75.383018
  0
VERTEX
  5
3c6
  8
Layer_2
  10
183.18872
  20
75.383018
  0
VERTEX
  5
3c7
  8
Layer_2
  10
183.18872
  20
77.067574
  0
VERTEX
  5
3c8
  8
Layer_2
  10
183.7439
  20
77.067574
  0
VERTEX
  5
3c9
  8
Layer_2
  10
183.96249
  20
77.03769
  0
VERTEX
  5
3ca
  8
Layer_2
  10
184.12083
  20
76.945417
  0
VERTEX
  5
3cb
  8
Layer_2
  10
184.21715
  20
76.786836
  0
VERTEX
  5
3cc
  8
Layer_2
  10
184.24965
  20
76.558024
  0
VERTEX
  5
3cd
  8
Layer_2
  10
184.22814
  20
76.359457
  0
VERTEX
  5
3ce
  8
Layer_2
  10
184.16884
  20
76.218642
  0
VERTEX
  5
3cf
  8
Layer_2
  10
184.0796
  20
76.124883
  0
VERTEX
  5
3d0
  8
Layer_2
  10
183.96826
  20
76.067487
  0
VERTEX
  5
3d1
  8
Layer_2
  10
184.29147
  20
75.386818
  0
SEQEND
  0
POLYLINE
  5
3d3
  8
Layer_2
  62
1
  70
1
  66
1
  10
0
  20
0
  30
0
  0
VERTEX
  5
3d3
  8
Layer_2
  10
184.98355
  20
75.405831
  0
VERTEX
  5
3d4
  8
Layer_2
  10
185.03227
  20
75.398701
  0
VERTEX
  5
3d5
  8
Layer_2
  10
185.15372
  20
75.383015
  0
VERTEX
  5
3d6
  8
Layer_2
  10
185.31082
  20
75.367329
  0
VERTEX
  5
3d7
  8
Layer_2
  10
185.46649
  20
75.360199
  0
VERTEX
  5
3d8
  8
Layer_2
  10
185.6915
  20
75.393413
  0
VERTEX
  5
3d9
  8
Layer_2
  10
185.84912
  20
75.491865
  0
VERTEX
  5
3da
  8
Layer_2
  10
185.94187
  20
75.653774
  0
VERTEX
  5
3db
  8
Layer_2
  10
185.97223
  20
75.877356
  0
VERTEX
  5
3dc
  8
Layer_2
  10
185.94377
  20
76.065288
  0
VERTEX
  5
3dd
  8
Layer_2
  10
185.85863
  20
76.191548
  0
VERTEX
  5
3de
  8
Layer_2
  10
185.71716
  20
76.27574
  0
VERTEX
  5
3df
  8
Layer_2
  10
185.51973
  20
76.337472
  0
VERTEX
  5
3e0
  8
Layer_2
  10
185.35521
  20
76.38453
  0
VERTEX
  5
3e1
  8
Layer_2
  10
185.24166
  20
76.440143
  0
VERTEX
  5
3e2
  8
Layer_2
  10
185.17589
  20
76.521424
  0
VERTEX
  5
3e3
  8
Layer_2
  10
185.15468
  20
76.645484
  0
VERTEX
  5
3e4
  8
Layer_2
  10
185.17541
  20
76.774476
  0
VERTEX
  5
3e5
  8
Layer_2
  10
185.23786
  20
76.861758
  0
VERTEX
  5
3e6
  8
Layer_2
  10
185.34237
  20
76.911252
  0
VERTEX
  5
3e7
  8
Layer_2
  10
185.4893
  20
76.926878
  0
VERTEX
  5
3e8
  8
Layer_2
  10
185.62543
  20
76.921531
  0
VERTEX
  5
3e9
  8
Layer_2
  10
185.76547
  20
76.909766
  0
VERTEX
  5
3ea
  8
Layer_2
  10
185.87486
  20
76.898002
  0
VERTEX
  5
3eb
  8
Layer_2
  10
185.91901
  20
76.892654
  0
VERTEX
  5
3ec
  8
Layer_2
  10
185.92661
  20
77.044762
  0
VERTEX
  5
3ed
  8
Layer_2
  10
185.88323
  20
77.052484
  0
VERTEX
  5
3ee
  8
Layer_2
  10
185.77355
  20
77.069477
  0
VERTEX
  5
3ef
  8
Layer_2
  10
185.62822
  20
77.08647
  0
VERTEX
  5
3f0
  8
Layer_2
  10
185.47789
  20
77.094194
  0
VERTEX
  5
3f1
  8
Layer_2
  10
185.25592
  20
77.066566
  0
VERTEX
  5
3f2
  8
Layer_2
  10
185.09383
  20
76.981542
  0
VERTEX
  5
3f3
  8
Layer_2
  10
184.99449
  20
76.835913
  0
VERTEX
  5
3f4
  8
Layer_2
  10
184.96074
  20
76.626472
  0
VERTEX
  5
3f5
  8
Layer_2
  10
184.99175
  20
76.445551
  0
VERTEX
  5
3f6
  8
Layer_2
  10
185.08337
  20
76.319886
  0
VERTEX
  5
3f7
  8
Layer_2
  10
185.23346
  20
76.233436
  0
VERTEX
  5
3f8
  8
Layer_2
  10
185.43987
  20
76.170158
  0
VERTEX
  5
3f9
  8
Layer_2
  10
185.5896
  20
76.129458
  0
VERTEX
  5
3fa
  8
Layer_2
  10
185.69655
  20
76.072716
  0
VERTEX
  5
3fb
  8
Layer_2
  10
185.76072
  20
75.98674
  0
VERTEX
  5
3fc
  8
Layer_2
  10
185.7821
  20
75.858342
  0
VERTEX
  5
3fd
  8
Layer_2
  10
185.76327
  20
75.713011
  0
VERTEX
  5
3fe
  8
Layer_2
  10
185.70558
  20
75.608321
  0
VERTEX
  5
3ff
  8
Layer_2
  10
185.60725
  20
75.544983
  0
VERTEX
  5
400
  8
Layer_2
  10
185.46649
  20
75.523712
  0
VERTEX
  5
401
  8
Layer_2
  10
185.32544
  20
75.52906
  0
VERTEX
  5
402
  8
Layer_2
  10
185.17084
  20
75.540824
  0
VERTEX
  5
403
  8
Layer_2
  10
185.04618
  20
75.552589
  0
VERTEX
  5
404
  8
Layer_2
  10
184.99496
  20
75.557937
  0
VERTEX
  5
405
  8
Layer_2
  10
184.98355
  20
75.40583
  0
SEQEND
  0
POLYLINE
  5
407
  8
Layer_2
  62
1
  70
1
  66
1
  10
0
  20
0
  30
0
  0
VERTEX
  5
407
  8
Layer_2
  10
171.96339
  20
77.95739
  0
VERTEX
  5
408
  8
Layer_2
  10
175.96754
  20
71.724899
  0
VERTEX
  5
409
  8
Layer_2
  10
176.0205
  20
71.622213
  0
VERTEX
  5
40a
  8
Layer_2
  10
176.04609
  20
71.526568
  0
VERTEX
  5
40b
  8
Layer_2
  10
176.04549
  20
71.440014
  0
VERTEX
  5
40c
  8
Layer_2
  10
176.01983
  20
71.3646
  0
VERTEX
  5
40d
  8
Layer_2
  10
175.97029
  20
71.302377
  0
VERTEX
  5
40e
  8
Layer_2
  10
175.89803
  20
71.255394
  0
VERTEX
  5
40f
  8
Layer_2
  10
175.8042
  20
71.225701
  0
VERTEX
  5
410
  8
Layer_2
  10
175.68996
  20
71.215347
  0
VERTEX
  5
411
  8
Layer_2
  10
167.59419
  20
71.215347
  0
VERTEX
  5
412
  8
Layer_2
  10
167.47995
  20
71.225693
  0
VERTEX
  5
413
  8
Layer_2
  10
167.38611
  20
71.255334
  0
VERTEX
  5
414
  8
Layer_2
  10
167.31385
  20
71.302176
  0
VERTEX
  5
415
  8
Layer_2
  10
167.26431
  20
71.364125
  0
VERTEX
  5
416
  8
Layer_2
  10
167.23866
  20
71.439085
  0
VERTEX
  5
417
  8
Layer_2
  10
167.23805
  20
71.524964
  0
VERTEX
  5
418
  8
Layer_2
  10
167.26364
  20
71.619665
  0
VERTEX
  5
419
  8
Layer_2
  10
167.31659
  20
71.721096
  0
VERTEX
  5
41a
  8
Layer_2
  10
171.31314
  20
77.95739
  0
VERTEX
  5
41b
  8
Layer_2
  10
171.38506
  20
78.048473
  0
VERTEX
  5
41c
  8
Layer_2
  10
171.46501
  20
78.113533
  0
VERTEX
  5
41d
  8
Layer_2
  10
171.5503
  20
78.15257
  0
VERTEX
  5
41e
  8
Layer_2
  10
171.63827
  20
78.165582
  0
VERTEX
  5
41f
  8
Layer_2
  10
171.72623
  20
78.15257
  0
VERTEX
  5
420
  8
Layer_2
  10
171.81153
  20
78.113533
  0
VERTEX
  5
421
  8
Layer_2
  10
171.89147
  20
78.048473
  0
VERTEX
  5
422
  8
Layer_2
  10
171.96339
  20
77.957388
  0
SEQEND
  0
POLYLINE
  5
424
  8
Layer_2
  62
1
  70
1
  66
1
  10
0
  20
0
  30
0
  0
VERTEX
  5
424
  8
Layer_2
  10
183.37505
  20
76.907867
  0
VERTEX
  5
425
  8
Layer_2
  10
183.7439
  20
76.907867
  0
VERTEX
  5
426
  8
Layer_2
  10
183.88466
  20
76.886357
  0
VERTEX
  5
427
  8
Layer_2
  10
183.98299
  20
76.821356
  0
VERTEX
  5
428
  8
Layer_2
  10
184.04069
  20
76.712149
  0
VERTEX
  5
429
  8
Layer_2
  10
184.05952
  20
76.558024
  0
VERTEX
  5
42a
  8
Layer_2
  10
184.04069
  20
76.39671
  0
VERTEX
  5
42b
  8
Layer_2
  10
183.98299
  20
76.28281
  0
VERTEX
  5
42c
  8
Layer_2
  10
183.88466
  20
76.215254
  0
VERTEX
  5
42d
  8
Layer_2
  10
183.7439
  20
76.192973
  0
VERTEX
  5
42e
  8
Layer_2
  10
183.37505
  20
76.19297
  0
SEQEND
  0
POLYLINE
  5
430
  8
Layer_2
  62
1
  70
1
  66
1
  10
0
  20
0
  30
0
  0
VERTEX
  5
430
  8
Layer_2
  10
170.2256
  20
74.54644
  0
VERTEX
  5
431
  8
Layer_2
  10
170.2218
  20
74.54644
  0
VERTEX
  5
432
  8
Layer_2
  10
170.18615
  20
74.542638
  0
VERTEX
  5
433
  8
Layer_2
  10
170.13054
  20
74.538836
  42
-0.17543172
  0
VERTEX
  5
434
  8
Layer_2
  10
169.99364
  20
74.584465
  0
VERTEX
  5
435
  8
Layer_2
  10
169.92804
  20
74.665035
  0
VERTEX
  5
436
  8
Layer_2
  10
169.90237
  20
74.738473
  0
VERTEX
  5
437
  8
Layer_2
  10
169.89952
  20
74.791947
  0
VERTEX
  5
438
  8
Layer_2
  10
169.90237
  20
74.812624
  0
VERTEX
  5
439
  8
Layer_2
  10
169.96321
  20
74.816429
  0
VERTEX
  5
43a
  8
Layer_2
  10
170.0887
  20
74.706154
  42
1.2530383e-05
  0
VERTEX
  5
43b
  8
Layer_2
  10
170.11533
  20
74.71756
  42
1.4473172e-05
  0
VERTEX
  5
43c
  8
Layer_2
  10
170.14574
  20
74.740372
  42
0.098951358
  0
VERTEX
  5
43d
  8
Layer_2
  10
170.17236
  20
74.778397
  42
0.13582477
  0
VERTEX
  5
43e
  8
Layer_2
  10
170.17616
  20
74.862061
  0
VERTEX
  5
43f
  8
Layer_2
  10
170.04308
  20
74.983742
  0
VERTEX
  5
440
  8
Layer_2
  10
170.04593
  20
74.986118
  0
VERTEX
  5
441
  8
Layer_2
  10
170.05447
  20
74.991346
  0
VERTEX
  5
442
  8
Layer_2
  10
170.0887
  20
75.002754
  42
-0.061321355
  0
VERTEX
  5
443
  8
Layer_2
  10
170.15715
  20
75.010361
  0
VERTEX
  5
444
  8
Layer_2
  10
170.17236
  20
75.010361
  42
-0.1836778
  0
VERTEX
  5
445
  8
Layer_2
  10
170.33968
  20
74.934311
  0
VERTEX
  5
446
  8
Layer_2
  10
170.40384
  20
74.819754
  0
VERTEX
  5
447
  8
Layer_2
  10
170.41953
  20
74.725163
  0
VERTEX
  5
448
  8
Layer_2
  10
170.44092
  20
74.697595
  0
VERTEX
  5
449
  8
Layer_2
  10
170.49939
  20
74.641506
  0
VERTEX
  5
44a
  8
Layer_2
  10
170.50319
  20
74.64151
  0
VERTEX
  5
44b
  8
Layer_2
  10
170.50319
  20
74.318283
  0
VERTEX
  5
44c
  8
Layer_2
  10
170.39351
  20
74.410081
  0
VERTEX
  5
44d
  8
Layer_2
  10
170.30735
  20
74.482271
  0
VERTEX
  5
44e
  8
Layer_2
  10
170.24972
  20
74.529507
  0
SEQEND
  0
POLYLINE
  5
450
  8
Layer_2
  62
1
  70
1
  66
1
  10
0
  20
0
  30
0
  0
VERTEX
  5
450
  8
Layer_2
  10
170.57544
  20
74.926704
  0
VERTEX
  5
451
  8
Layer_2
  10
170.54501
  20
74.979942
  0
VERTEX
  5
452
  8
Layer_2
  10
170.57164
  20
75.16246
  0
VERTEX
  5
453
  8
Layer_2
  10
170.64008
  20
75.16246
  0
VERTEX
  5
454
  8
Layer_2
  10
170.6667
  20
74.979942
  0
VERTEX
  5
455
  8
Layer_2
  10
170.64389
  20
74.922897
  0
VERTEX
  5
456
  8
Layer_2
  10
170.64389
  20
73.139473
  0
VERTEX
  5
457
  8
Layer_2
  10
170.67003
  20
73.137571
  0
VERTEX
  5
458
  8
Layer_2
  10
170.69331
  20
73.135669
  0
VERTEX
  5
459
  8
Layer_2
  10
170.76225
  20
73.120934
  0
VERTEX
  5
45a
  8
Layer_2
  10
170.78839
  20
73.097643
  42
-0.41421356
  0
VERTEX
  5
45b
  8
Layer_2
  10
170.77318
  20
73.086235
  42
0.19893681
  0
VERTEX
  5
45c
  8
Layer_2
  10
170.73515
  20
73.006378
  42
-0.11635119
  0
VERTEX
  5
45d
  8
Layer_2
  10
170.75037
  20
72.949341
  0
VERTEX
  5
45e
  8
Layer_2
  10
170.76747
  20
72.462606
  0
VERTEX
  5
45f
  8
Layer_2
  10
170.78458
  20
71.975872
  0
VERTEX
  5
460
  8
Layer_2
  10
170.77876
  20
71.918
  0
VERTEX
  5
461
  8
Layer_2
  10
170.75511
  20
71.852286
  0
VERTEX
  5
462
  8
Layer_2
  10
170.71292
  20
71.795128
  0
VERTEX
  5
463
  8
Layer_2
  10
170.65149
  20
71.762924
  42
-0.080557955
  0
VERTEX
  5
464
  8
Layer_2
  10
170.61346
  20
71.759125
  42
-0.061299146
  0
VERTEX
  5
465
  8
Layer_2
  10
170.56403
  20
71.762924
  0
VERTEX
  5
466
  8
Layer_2
  10
170.50325
  20
71.796256
  0
VERTEX
  5
467
  8
Layer_2
  10
170.46278
  20
71.855613
  0
VERTEX
  5
468
  8
Layer_2
  10
170.44157
  20
71.922812
  0
VERTEX
  5
469
  8
Layer_2
  10
170.43854
  20
71.979673
  42
0.00031790707
  0
VERTEX
  5
46a
  8
Layer_2
  10
170.49939
  20
72.949341
  42
-0.066821092
  0
VERTEX
  5
46b
  8
Layer_2
  10
170.5184
  20
73.006378
  42
0.17032565
  0
VERTEX
  5
46c
  8
Layer_2
  10
170.48418
  20
73.090042
  42
-0.25082895
  0
VERTEX
  5
46d
  8
Layer_2
  10
170.46896
  20
73.109055
  0
VERTEX
  5
46e
  8
Layer_2
  10
170.46896
  20
73.112854
  0
VERTEX
  5
46f
  8
Layer_2
  10
170.49511
  20
73.132342
  0
VERTEX
  5
470
  8
Layer_2
  10
170.56403
  20
73.143274
  0
VERTEX
  5
471
  8
Layer_2
  10
170.57116
  20
73.143274
  0
VERTEX
  5
472
  8
Layer_2
  10
170.57544
  20
73.143274
  0
SEQEND
  0
POLYLINE
  5
474
  8
Layer_2
  62
1
  70
1
  66
1
  10
0
  20
0
  30
0
  0
VERTEX
  5
474
  8
Layer_2
  10
170.72754
  20
74.128152
  0
VERTEX
  5
475
  8
Layer_2
  10
171.04922
  20
73.847175
  0
VERTEX
  5
476
  8
Layer_2
  10
171.35308
  20
73.580101
  0
VERTEX
  5
477
  8
Layer_2
  10
171.47982
  20
73.467708
  0
VERTEX
  5
478
  8
Layer_2
  10
171.57993
  20
73.377908
  0
VERTEX
  5
479
  8
Layer_2
  10
171.64598
  20
73.317073
  0
VERTEX
  5
47a
  8
Layer_2
  10
171.67059
  20
73.291576
  0
VERTEX
  5
47b
  8
Layer_2
  10
171.68676
  20
73.188906
  0
VERTEX
  5
47c
  8
Layer_2
  10
171.75426
  20
73.052011
  42
0.19894496
  0
VERTEX
  5
47d
  8
Layer_2
  10
171.89494
  20
72.983566
  42
0.061321355
  0
VERTEX
  5
47e
  8
Layer_2
  10
171.94058
  20
72.991173
  0
VERTEX
  5
47f
  8
Layer_2
  10
171.99572
  20
73.004003
  0
VERTEX
  5
480
  8
Layer_2
  10
172.01663
  20
73.013985
  0
VERTEX
  5
481
  8
Layer_2
  10
171.89114
  20
73.135666
  42
-0.31965933
  0
VERTEX
  5
482
  8
Layer_2
  10
171.99382
  20
73.287773
  0
VERTEX
  5
483
  8
Layer_2
  10
172.12311
  20
73.169891
  0
VERTEX
  5
484
  8
Layer_2
  10
172.16873
  20
73.173698
  0
VERTEX
  5
485
  8
Layer_2
  10
172.1701
  20
73.193362
  0
VERTEX
  5
486
  8
Layer_2
  10
172.16826
  20
73.248322
  0
VERTEX
  5
487
  8
Layer_2
  10
172.14574
  20
73.323959
  0
VERTEX
  5
488
  8
Layer_2
  10
172.08508
  20
73.405655
  0
VERTEX
  5
489
  8
Layer_2
  10
172.01562
  20
73.451702
  0
VERTEX
  5
48a
  8
Layer_2
  10
171.95151
  20
73.471726
  0
VERTEX
  5
48b
  8
Layer_2
  10
171.89525
  20
73.476776
  0
VERTEX
  5
48c
  8
Layer_2
  10
171.84932
  20
73.477905
  0
VERTEX
  5
48d
  8
Layer_2
  10
171.79098
  20
73.512834
  0
VERTEX
  5
48e
  8
Layer_2
  10
171.69062
  20
73.589072
  0
VERTEX
  5
48f
  8
Layer_2
  10
171.55755
  20
73.698019
  0
VERTEX
  5
490
  8
Layer_2
  10
171.40108
  20
73.831073
  0
VERTEX
  5
491
  8
Layer_2
  10
171.05522
  20
74.135104
  0
VERTEX
  5
492
  8
Layer_2
  10
170.72754
  20
74.432363
  0
VERTEX
  5
493
  8
Layer_2
  10
170.72754
  20
74.128151
  0
SEQEND
  0
POLYLINE
  5
495
  8
Layer_2
  62
1
  70
1
  66
1
  10
0
  20
0
  30
0
  0
VERTEX
  5
495
  8
Layer_2
  10
172.72011
  20
72.48542
  42
-0.25087257
  0
VERTEX
  5
496
  8
Layer_2
  10
172.6859
  20
72.504433
  42
-0.19935171
  0
VERTEX
  5
497
  8
Layer_2
  10
172.68208
  20
72.523445
  0
VERTEX
  5
498
  8
Layer_2
  10
172.68208
  20
73.938019
  42
-0.41421356
  0
VERTEX
  5
499
  8
Layer_2
  10
172.72011
  20
73.976051
  42
-0.41421356
  0
VERTEX
  5
49a
  8
Layer_2
  10
172.75815
  20
73.938019
  0
VERTEX
  5
49b
  8
Layer_2
  10
172.75815
  20
72.523445
  0
VERTEX
  5
49c
  8
Layer_2
  10
172.75624
  20
72.513941
  0
VERTEX
  5
49d
  8
Layer_2
  10
172.75433
  20
72.504436
  42
-0.25087257
  0
SEQEND
  0
POLYLINE
  5
49f
  8
Layer_2
  62
1
  70
1
  66
1
  10
0
  20
0
  30
0
  0
VERTEX
  5
49f
  8
Layer_2
  10
177.7814
  20
74.557846
  0
VERTEX
  5
4a0
  8
Layer_2
  10
178.15025
  20
74.557846
  0
VERTEX
  5
4a1
  8
Layer_2
  10
178.58376
  20
72.873291
  0
VERTEX
  5
4a2
  8
Layer_2
  10
178.39742
  20
72.873291
  0
VERTEX
  5
4a3
  8
Layer_2
  10
178.27954
  20
73.302986
  0
VERTEX
  5
4a4
  8
Layer_2
  10
177.6483
  20
73.302986
  0
VERTEX
  5
4a5
  8
Layer_2
  10
177.53043
  20
72.873291
  0
VERTEX
  5
4a6
  8
Layer_2
  10
177.3441
  20
72.873291
  0
SEQEND
  0
POLYLINE
  5
4a8
  8
Layer_2
  62
1
  70
1
  66
1
  10
0
  20
0
  30
0
  0
VERTEX
  5
4a8
  8
Layer_2
  10
178.62938
  20
77.071381
  0
VERTEX
  5
4a9
  8
Layer_2
  10
178.95641
  20
77.071381
  0
VERTEX
  5
4aa
  8
Layer_2
  10
178.95641
  20
75.386818
  0
VERTEX
  5
4ab
  8
Layer_2
  10
178.77768
  20
75.386818
  0
VERTEX
  5
4ac
  8
Layer_2
  10
178.77768
  20
76.90406
  0
VERTEX
  5
4ad
  8
Layer_2
  10
178.74345
  20
76.90406
  0
VERTEX
  5
4ae
  8
Layer_2
  10
178.31377
  20
75.447662
  0
VERTEX
  5
4af
  8
Layer_2
  10
178.0818
  20
75.447662
  0
VERTEX
  5
4b0
  8
Layer_2
  10
177.65591
  20
76.90406
  0
VERTEX
  5
4b1
  8
Layer_2
  10
177.61789
  20
76.90406
  0
VERTEX
  5
4b2
  8
Layer_2
  10
177.61789
  20
75.386818
  0
VERTEX
  5
4b3
  8
Layer_2
  10
177.44296
  20
75.386818
  0
VERTEX
  5
4b4
  8
Layer_2
  10
177.44296
  20
77.071381
  0
VERTEX
  5
4b5
  8
Layer_2
  10
177.76999
  20
77.071381
  0
VERTEX
  5
4b6
  8
Layer_2
  10
178.19969
  20
75.626381
  0
SEQEND
  0
POLYLINE
  5
4b8
  8
Layer_2
  62
1
  70
1
  66
1
  10
0
  20
0
  30
0
  0
VERTEX
  5
4b8
  8
Layer_2
  10
180.02875
  20
74.557846
  0
VERTEX
  5
4b9
  8
Layer_2
  10
179.82721
  20
74.557846
  0
VERTEX
  5
4ba
  8
Layer_2
  10
180.31775
  20
73.580574
  0
VERTEX
  5
4bb
  8
Layer_2
  10
180.31775
  20
72.873291
  0
VERTEX
  5
4bc
  8
Layer_2
  10
180.49646
  20
72.873291
  0
VERTEX
  5
4bd
  8
Layer_2
  10
180.49646
  20
73.580574
  0
VERTEX
  5
4be
  8
Layer_2
  10
180.9832
  20
74.557846
  0
VERTEX
  5
4bf
  8
Layer_2
  10
180.78546
  20
74.557846
  0
VERTEX
  5
4c0
  8
Layer_2
  10
180.4052
  20
73.782112
  0
SEQEND
  0
POLYLINE
  5
4c2
  8
Layer_2
  62
1
  70
1
  66
1
  10
0
  20
0
  30
0
  0
VERTEX
  5
4c2
  8
Layer_2
  10
181.19995
  20
74.557846
  0
VERTEX
  5
4c3
  8
Layer_2
  10
181.38628
  20
74.557846
  0
VERTEX
  5
4c4
  8
Layer_2
  10
181.38628
  20
73.036804
  0
VERTEX
  5
4c5
  8
Layer_2
  10
182.04793
  20
73.036804
  0
VERTEX
  5
4c6
  8
Layer_2
  10
182.04793
  20
72.873291
  0
VERTEX
  5
4c7
  8
Layer_2
  10
181.19995
  20
72.873291
  0
SEQEND
  0
POLYLINE
  5
4c9
  8
Layer_2
  62
1
  70
1
  66
1
  10
0
  20
0
  30
0
  0
VERTEX
  5
4c9
  8
Layer_2
  10
179.63327
  20
77.071381
  0
VERTEX
  5
4ca
  8
Layer_2
  10
180.00212
  20
77.071381
  0
VERTEX
  5
4cb
  8
Layer_2
  10
180.43562
  20
75.386818
  0
VERTEX
  5
4cc
  8
Layer_2
  10
180.2493
  20
75.386818
  0
VERTEX
  5
4cd
  8
Layer_2
  10
180.13141
  20
75.816513
  0
VERTEX
  5
4ce
  8
Layer_2
  10
179.50018
  20
75.816513
  0
VERTEX
  5
4cf
  8
Layer_2
  10
179.38229
  20
75.386818
  0
VERTEX
  5
4d0
  8
Layer_2
  10
179.19597
  20
75.386818
  0
SEQEND
  0
POLYLINE
  5
4d2
  8
Layer_2
  62
1
  70
1
  66
1
  10
0
  20
0
  30
0
  0
VERTEX
  5
4d2
  8
Layer_2
  10
181.25319
  20
76.238602
  0
VERTEX
  5
4d3
  8
Layer_2
  10
181.7057
  20
77.071381
  0
VERTEX
  5
4d4
  8
Layer_2
  10
181.49655
  20
77.071381
  0
VERTEX
  5
4d5
  8
Layer_2
  10
181.08968
  20
76.303253
  0
VERTEX
  5
4d6
  8
Layer_2
  10
180.86151
  20
76.29184
  0
VERTEX
  5
4d7
  8
Layer_2
  10
180.86151
  20
77.071381
  0
VERTEX
  5
4d8
  8
Layer_2
  10
180.67899
  20
77.071381
  0
VERTEX
  5
4d9
  8
Layer_2
  10
180.67899
  20
75.386818
  0
VERTEX
  5
4da
  8
Layer_2
  10
180.86151
  20
75.386818
  0
VERTEX
  5
4db
  8
Layer_2
  10
180.86151
  20
76.128326
  0
VERTEX
  5
4dc
  8
Layer_2
  10
181.09348
  20
76.135933
  0
VERTEX
  5
4dd
  8
Layer_2
  10
181.52318
  20
75.386818
  0
VERTEX
  5
4de
  8
Layer_2
  10
181.73232
  20
75.386818
  0
SEQEND
  0
POLYLINE
  5
4e0
  8
Layer_2
  62
1
  70
1
  66
1
  10
0
  20
0
  30
0
  0
VERTEX
  5
4e0
  8
Layer_2
  10
182.13919
  20
76.162552
  0
VERTEX
  5
4e1
  8
Layer_2
  10
182.13919
  20
75.554138
  0
VERTEX
  5
4e2
  8
Layer_2
  10
182.89592
  20
75.554138
  0
VERTEX
  5
4e3
  8
Layer_2
  10
182.89592
  20
75.386818
  0
VERTEX
  5
4e4
  8
Layer_2
  10
181.95667
  20
75.386818
  0
VERTEX
  5
4e5
  8
Layer_2
  10
181.95667
  20
77.071381
  0
VERTEX
  5
4e6
  8
Layer_2
  10
182.89592
  20
77.071381
  0
VERTEX
  5
4e7
  8
Layer_2
  10
182.89592
  20
76.90406
  0
VERTEX
  5
4e8
  8
Layer_2
  10
182.13919
  20
76.90406
  0
VERTEX
  5
4e9
  8
Layer_2
  10
182.13919
  20
76.326065
  0
VERTEX
  5
4ea
  8
Layer_2
  10
182.75902
  20
76.326065
  0
VERTEX
  5
4eb
  8
Layer_2
  10
182.75902
  20
76.162552
  0
SEQEND
  0
POLYLINE
  5
4ed
  8
Layer_2
  62
1
  70
1
  66
1
  10
0
  20
0
  30
0
  0
VERTEX
  5
4ed
  8
Layer_2
  10
184.87708
  20
74.557846
  0
VERTEX
  5
4ee
  8
Layer_2
  10
185.2003
  20
74.557846
  0
VERTEX
  5
4ef
  8
Layer_2
  10
185.2003
  20
72.873291
  0
VERTEX
  5
4f0
  8
Layer_2
  10
185.02539
  20
72.873291
  0
VERTEX
  5
4f1
  8
Layer_2
  10
185.02539
  20
74.390533
  0
VERTEX
  5
4f2
  8
Layer_2
  10
184.99117
  20
74.390533
  0
VERTEX
  5
4f3
  8
Layer_2
  10
184.55766
  20
72.934128
  0
VERTEX
  5
4f4
  8
Layer_2
  10
184.3295
  20
72.934128
  0
VERTEX
  5
4f5
  8
Layer_2
  10
183.89981
  20
74.390533
  0
VERTEX
  5
4f6
  8
Layer_2
  10
183.86179
  20
74.390533
  0
VERTEX
  5
4f7
  8
Layer_2
  10
183.86179
  20
72.873291
  0
VERTEX
  5
4f8
  8
Layer_2
  10
183.68686
  20
72.873291
  0
VERTEX
  5
4f9
  8
Layer_2
  10
183.68686
  20
74.557846
  0
VERTEX
  5
4fa
  8
Layer_2
  10
184.01768
  20
74.557846
  0
VERTEX
  5
4fb
  8
Layer_2
  10
184.44359
  20
73.112854
  0
SEQEND
  0
POLYLINE
  5
4fd
  8
Layer_2
  62
1
  70
1
  66
1
  10
0
  20
0
  30
0
  0
VERTEX
  5
4fd
  8
Layer_2
  10
184.53865
  20
76.519997
  0
VERTEX
  5
4fe
  8
Layer_2
  10
184.69836
  20
76.519997
  0
VERTEX
  5
4ff
  8
Layer_2
  10
184.70216
  20
77.07518
  0
VERTEX
  5
500
  8
Layer_2
  10
184.53104
  20
77.07518
  0
SEQEND
  0
POLYLINE
  5
502
  8
Layer_2
  62
1
  70
1
  66
1
  10
0
  20
0
  30
0
  0
VERTEX
  5
502
  8
Layer_2
  10
186.05969
  20
77.618958
  0
VERTEX
  5
503
  8
Layer_2
  10
186.33348
  20
77.618958
  0
VERTEX
  5
504
  8
Layer_2
  10
186.33348
  20
77.550507
  0
VERTEX
  5
505
  8
Layer_2
  10
186.24222
  20
77.550507
  0
VERTEX
  5
506
  8
Layer_2
  10
186.24222
  20
77.212074
  0
VERTEX
  5
507
  8
Layer_2
  10
186.16617
  20
77.212074
  0
VERTEX
  5
508
  8
Layer_2
  10
186.16617
  20
77.550507
  0
VERTEX
  5
509
  8
Layer_2
  10
186.05969
  20
77.550507
  0
SEQEND
  0
POLYLINE
  5
50b
  8
Layer_2
  62
1
  70
1
  66
1
  10
0
  20
0
  30
0
  0
VERTEX
  5
50b
  8
Layer_2
  10
186.53882
  20
77.231087
  0
VERTEX
  5
50c
  8
Layer_2
  10
186.59587
  20
77.231087
  0
VERTEX
  5
50d
  8
Layer_2
  10
186.68713
  20
77.516281
  0
VERTEX
  5
50e
  8
Layer_2
  10
186.68713
  20
77.208275
  0
VERTEX
  5
50f
  8
Layer_2
  10
186.75938
  20
77.208275
  0
VERTEX
  5
510
  8
Layer_2
  10
186.75938
  20
77.618958
  0
VERTEX
  5
511
  8
Layer_2
  10
186.66051
  20
77.618958
  0
VERTEX
  5
512
  8
Layer_2
  10
186.56544
  20
77.333755
  0
VERTEX
  5
513
  8
Layer_2
  10
186.47418
  20
77.618958
  0
VERTEX
  5
514
  8
Layer_2
  10
186.37532
  20
77.618958
  0
VERTEX
  5
515
  8
Layer_2
  10
186.37912
  20
77.208275
  0
VERTEX
  5
516
  8
Layer_2
  10
186.45137
  20
77.208275
  0
VERTEX
  5
517
  8
Layer_2
  10
186.45137
  20
77.516281
  0
SEQEND
  0
POLYLINE
  5
519
  8
Layer_2
  62
1
  70
1
  66
1
  10
0
  20
0
  30
0
  0
VERTEX
  5
519
  8
Layer_2
  10
178.04141
  20
124.49512
  0
VERTEX
  5
51a
  8
Layer_2
  10
178.04141
  20
94.495125
  0
VERTEX
  5
51b
  8
Layer_2
  10
121.76141
  20
94.495125
  0
VERTEX
  5
51c
  8
Layer_2
  10
121.76141
  20
124.49512
  0
SEQEND
  0
POLYLINE
  5
51e
  8
Layer_2
  62
1
  70
1
  66
1
  10
0
  20
0
  30
0
  0
VERTEX
  5
51e
  8
Layer_2
  10
178.24152
  20
73.466499
  0
VERTEX
  5
51f
  8
Layer_2
  10
178.00195
  20
74.390533
  0
VERTEX
  5
520
  8
Layer_2
  10
177.9297
  20
74.390533
  0
VERTEX
  5
521
  8
Layer_2
  10
177.68633
  20
73.466499
  0
SEQEND
  0
POLYLINE
  5
523
  8
Layer_2
  62
1
  70
1
  66
1
  10
0
  20
0
  30
0
  0
VERTEX
  5
523
  8
Layer_2
  10
180.09338
  20
75.980026
  0
VERTEX
  5
524
  8
Layer_2
  10
179.85382
  20
76.90406
  0
VERTEX
  5
525
  8
Layer_2
  10
179.78157
  20
76.90406
  0
VERTEX
  5
526
  8
Layer_2
  10
179.53821
  20
75.980026
  0
SEQEND
  0
POLYLINE
  5
528
  8
Layer_2
  62
1
  70
1
  66
1
  10
0
  20
0
  30
0
  0
VERTEX
  5
528
  8
Layer_2
  10
124.17141
  20
96.905121
  0
VERTEX
  5
529
  8
Layer_2
  10
175.63141
  20
96.905121
  0
VERTEX
  5
52a
  8
Layer_2
  10
175.63141
  20
122.08513
  0
VERTEX
  5
52b
  8
Layer_2
  10
124.17141
  20
122.08513
  0
SEQEND
  0
POLYLINE
  5
52d
  8
Layer_2
  62
1
  70
1
  66
1
  10
0
  20
0
  30
0
  0
VERTEX
  5
52d
  8
Layer_2
  10
130.72397
  20
104.17036
  42
0.054403292
  0
VERTEX
  5
52e
  8
Layer_2
  10
131.72055
  20
104.37349
  42
0.17710113
  0
VERTEX
  5
52f
  8
Layer_2
  10
133.53549
  20
105.68697
  42
0.29891091
  0
VERTEX
  5
530
  8
Layer_2
  10
133.57797
  20
108.71382
  42
0.16934796
  0
VERTEX
  5
531
  8
Layer_2
  10
131.6312
  20
109.99361
  42
0.01513969
  0
VERTEX
  5
532
  8
Layer_2
  10
129.20004
  20
110.61617
  0
VERTEX
  5
533
  8
Layer_2
  10
128.88217
  20
110.70894
  42
-0.10188471
  0
VERTEX
  5
534
  8
Layer_2
  10
127.89096
  20
111.16597
  42
-0.37174139
  0
VERTEX
  5
535
  8
Layer_2
  10
127.71078
  20
112.81245
  42
-0.21475745
  0
VERTEX
  5
536
  8
Layer_2
  10
129.03012
  20
113.57124
  42
-0.12143013
  0
VERTEX
  5
537
  8
Layer_2
  10
131.12973
  20
113.4399
  42
-0.27832567
  0
VERTEX
  5
538
  8
Layer_2
  10
132.35092
  20
111.89058
  0
VERTEX
  5
539
  8
Layer_2
  10
132.38559
  20
111.65279
  0
VERTEX
  5
53a
  8
Layer_2
  10
133.69809
  20
111.75142
  42
0.19945249
  0
VERTEX
  5
53b
  8
Layer_2
  10
132.77817
  20
113.87202
  42
0.12005837
  0
VERTEX
  5
53c
  8
Layer_2
  10
131.38266
  20
114.63374
  42
0.13500459
  0
VERTEX
  5
53d
  8
Layer_2
  10
128.35092
  20
114.64351
  42
0.14132132
  0
VERTEX
  5
53e
  8
Layer_2
  10
126.86166
  20
113.77534
  42
0.29367569
  0
VERTEX
  5
53f
  8
Layer_2
  10
126.37387
  20
110.99995
  42
0.17118653
  0
VERTEX
  5
540
  8
Layer_2
  10
127.63705
  20
109.74068
  42
0.052282192
  0
VERTEX
  5
541
  8
Layer_2
  10
129.29086
  20
109.17964
  0
VERTEX
  5
542
  8
Layer_2
  10
130.28305
  20
108.93501
  42
-0.050728676
  0
VERTEX
  5
543
  8
Layer_2
  10
131.7767
  20
108.45943
  42
-0.2134388
  0
VERTEX
  5
544
  8
Layer_2
  10
132.6185
  20
107.58589
  42
-0.33049728
  0
VERTEX
  5
545
  8
Layer_2
  10
132.0267
  20
105.88179
  42
-0.13133793
  0
VERTEX
  5
546
  8
Layer_2
  10
130.50082
  20
105.38765
  42
-0.15123055
  0
VERTEX
  5
547
  8
Layer_2
  10
128.20346
  20
105.84517
  42
-0.22914754
  0
VERTEX
  5
548
  8
Layer_2
  10
127.12631
  20
107.38716
  0
VERTEX
  5
549
  8
Layer_2
  10
127.06528
  20
107.75777
  0
VERTEX
  5
54a
  8
Layer_2
  10
125.77426
  20
107.64497
  42
0.34102942
  0
VERTEX
  5
54b
  8
Layer_2
  10
128.33383
  20
104.37544
  42
0.086828641
  0
SEQEND
  0
POLYLINE
  5
54d
  8
Layer_2
  62
1
  70
1
  66
1
  10
0
  20
0
  30
0
  0
VERTEX
  5
54d
  8
Layer_2
  10
136.99301
  20
114.66548
  0
VERTEX
  5
54e
  8
Layer_2
  10
135.72299
  20
114.66548
  0
VERTEX
  5
54f
  8
Layer_2
  10
135.72299
  20
113.20503
  0
VERTEX
  5
550
  8
Layer_2
  10
136.99301
  20
113.20503
  0
SEQEND
  0
POLYLINE
  5
552
  8
Layer_2
  62
1
  70
1
  66
1
  10
0
  20
0
  30
0
  0
VERTEX
  5
552
  8
Layer_2
  10
142.02768
  20
104.16988
  42
0.16933634
  0
VERTEX
  5
553
  8
Layer_2
  10
143.3895
  20
104.77925
  42
0.0600651
  0
VERTEX
  5
554
  8
Layer_2
  10
143.78793
  20
105.26704
  0
VERTEX
  5
555
  8
Layer_2
  10
143.78793
  20
104.32173
  0
VERTEX
  5
556
  8
Layer_2
  10
144.96616
  20
104.32173
  0
VERTEX
  5
557
  8
Layer_2
  10
144.96616
  20
114.66548
  0
VERTEX
  5
558
  8
Layer_2
  10
143.70297
  20
114.66548
  0
VERTEX
  5
559
  8
Layer_2
  10
143.70297
  20
110.95406
  0
VERTEX
  5
55a
  8
Layer_2
  10
143.52475
  20
111.17281
  42
0.25335314
  0
VERTEX
  5
55b
  8
Layer_2
  10
141.18442
  20
111.95406
  42
0.27528639
  0
VERTEX
  5
55c
  8
Layer_2
  10
138.84164
  20
110.09663
  42
0.19491477
  0
VERTEX
  5
55d
  8
Layer_2
  10
138.88022
  20
106.02534
  42
0.32868681
  0
SEQEND
  0
POLYLINE
  5
55f
  8
Layer_2
  62
1
  70
1
  66
1
  10
0
  20
0
  30
0
  0
VERTEX
  5
55f
  8
Layer_2
  10
148.23276
  20
108.42085
  42
-0.096469199
  0
VERTEX
  5
560
  8
Layer_2
  10
148.44467
  20
109.80415
  42
-0.29561385
  0
VERTEX
  5
561
  8
Layer_2
  10
150.21567
  20
110.89058
  42
-0.24802574
  0
VERTEX
  5
562
  8
Layer_2
  10
151.48032
  20
110.34029
  42
-0.15233985
  0
VERTEX
  5
563
  8
Layer_2
  10
151.79623
  20
109.07027
  0
VERTEX
  5
564
  8
Layer_2
  10
151.79623
  20
104.32173
  0
VERTEX
  5
565
  8
Layer_2
  10
153.06625
  20
104.32173
  0
VERTEX
  5
566
  8
Layer_2
  10
153.06625
  20
109.07027
  42
0.10273724
  0
VERTEX
  5
567
  8
Layer_2
  10
152.80161
  20
110.74947
  42
0.20178924
  0
VERTEX
  5
568
  8
Layer_2
  10
151.60239
  20
111.79976
  42
0.18994966
  0
VERTEX
  5
569
  8
Layer_2
  10
149.23862
  20
111.72652
  42
0.10875793
  0
VERTEX
  5
56a
  8
Layer_2
  10
148.23276
  20
110.95406
  0
VERTEX
  5
56b
  8
Layer_2
  10
148.23276
  20
114.66548
  0
VERTEX
  5
56c
  8
Layer_2
  10
146.96274
  20
114.66548
  0
VERTEX
  5
56d
  8
Layer_2
  10
146.96274
  20
104.32173
  0
VERTEX
  5
56e
  8
Layer_2
  10
148.23276
  20
104.32173
  0
SEQEND
  0
POLYLINE
  5
570
  8
Layer_2
  62
1
  70
1
  66
1
  10
0
  20
0
  30
0
  0
VERTEX
  5
570
  8
Layer_2
  10
173.28842
  20
104.22993
  42
0.036446643
  0
VERTEX
  5
571
  8
Layer_2
  10
174.02914
  20
104.33589
  0
VERTEX
  5
572
  8
Layer_2
  10
173.84604
  20
105.45747
  0
VERTEX
  5
573
  8
Layer_2
  10
173.68149
  20
105.43599
  42
-0.15685632
  0
VERTEX
  5
574
  8
Layer_2
  10
172.85434
  20
105.49995
  42
-0.27181215
  0
VERTEX
  5
575
  8
Layer_2
  10
172.5853
  20
105.99898
  42
-0.021716948
  0
VERTEX
  5
576
  8
Layer_2
  10
172.5687
  20
106.44527
  0
VERTEX
  5
577
  8
Layer_2
  10
172.5687
  20
110.8271
  0
VERTEX
  5
578
  8
Layer_2
  10
173.84604
  20
110.8271
  0
VERTEX
  5
579
  8
Layer_2
  10
173.84604
  20
111.8149
  0
VERTEX
  5
57a
  8
Layer_2
  10
172.5687
  20
111.8149
  0
VERTEX
  5
57b
  8
Layer_2
  10
172.5687
  20
114.43257
  0
VERTEX
  5
57c
  8
Layer_2
  10
171.30551
  20
113.67085
  0
VERTEX
  5
57d
  8
Layer_2
  10
171.30551
  20
111.8149
  0
VERTEX
  5
57e
  8
Layer_2
  10
170.37436
  20
111.8149
  0
VERTEX
  5
57f
  8
Layer_2
  10
170.37436
  20
110.8271
  0
VERTEX
  5
580
  8
Layer_2
  10
171.30551
  20
110.8271
  0
VERTEX
  5
581
  8
Layer_2
  10
171.30551
  20
106.51607
  42
0.065307002
  0
VERTEX
  5
582
  8
Layer_2
  10
171.42465
  20
105.11812
  42
0.27586196
  0
VERTEX
  5
583
  8
Layer_2
  10
172.4559
  20
104.2773
  42
0.061895176
  0
SEQEND
  0
POLYLINE
  5
585
  8
Layer_2
  62
1
  70
1
  66
1
  10
0
  20
0
  30
0
  0
VERTEX
  5
585
  8
Layer_2
  10
157.49838
  20
104.16792
  42
0.1467512
  0
VERTEX
  5
586
  8
Layer_2
  10
159.53989
  20
104.96822
  0
VERTEX
  5
587
  8
Layer_2
  10
159.8895
  20
105.24605
  0
VERTEX
  5
588
  8
Layer_2
  10
159.92612
  20
104.9897
  42
0.071222459
  0
VERTEX
  5
589
  8
Layer_2
  10
160.1434
  20
104.32173
  0
VERTEX
  5
58a
  8
Layer_2
  10
161.46957
  20
104.32173
  42
-0.12570479
  0
VERTEX
  5
58b
  8
Layer_2
  10
161.09946
  20
105.7563
  42
-0.013908607
  0
VERTEX
  5
58c
  8
Layer_2
  10
161.06674
  20
109.35835
  0
VERTEX
  5
58d
  8
Layer_2
  10
161.06381
  20
109.54536
  42
0.14014958
  0
VERTEX
  5
58e
  8
Layer_2
  10
160.73959
  20
111.00826
  42
0.1700405
  0
VERTEX
  5
58f
  8
Layer_2
  10
159.7269
  20
111.75826
  42
0.15288259
  0
VERTEX
  5
590
  8
Layer_2
  10
156.46713
  20
111.71968
  42
0.14085207
  0
VERTEX
  5
591
  8
Layer_2
  10
155.34555
  20
110.9648
  42
0.11534025
  0
VERTEX
  5
592
  8
Layer_2
  10
154.78793
  20
109.6772
  0
VERTEX
  5
593
  8
Layer_2
  10
156.02963
  20
109.50777
  0
VERTEX
  5
594
  8
Layer_2
  10
156.08432
  20
109.69966
  42
-0.19204535
  0
VERTEX
  5
595
  8
Layer_2
  10
156.77524
  20
110.69234
  42
-0.14382914
  0
VERTEX
  5
596
  8
Layer_2
  10
158.43442
  20
110.9062
  42
-0.18287781
  0
VERTEX
  5
597
  8
Layer_2
  10
159.51498
  20
110.41597
  42
-0.17062068
  0
VERTEX
  5
598
  8
Layer_2
  10
159.79037
  20
109.40865
  0
VERTEX
  5
599
  8
Layer_2
  10
159.78354
  20
109.0771
  42
-0.04615499
  0
VERTEX
  5
59a
  8
Layer_2
  10
157.89047
  20
108.68697
  0
VERTEX
  5
59b
  8
Layer_2
  10
157.16489
  20
108.5937
  42
0.12523019
  0
VERTEX
  5
59c
  8
Layer_2
  10
155.47592
  20
108.03316
  42
0.38278478
  0
VERTEX
  5
59d
  8
Layer_2
  10
154.82846
  20
105.25533
  42
0.21791429
  0
VERTEX
  5
59e
  8
Layer_2
  10
156.28452
  20
104.23726
  42
0.073783969
  0
SEQEND
  0
POLYLINE
  5
5a0
  8
Layer_2
  62
1
  70
1
  66
1
  10
0
  20
0
  30
0
  0
VERTEX
  5
5a0
  8
Layer_2
  10
164.30649
  20
108.41402
  0
VERTEX
  5
5a1
  8
Layer_2
  10
164.31528
  20
108.75923
  42
-0.12082404
  0
VERTEX
  5
5a2
  8
Layer_2
  10
164.63754
  20
110.05318
  42
-0.28214182
  0
VERTEX
  5
5a3
  8
Layer_2
  10
166.54184
  20
110.86909
  42
-0.28195108
  0
VERTEX
  5
5a4
  8
Layer_2
  10
167.70737
  20
110.04048
  42
-0.085604012
  0
VERTEX
  5
5a5
  8
Layer_2
  10
167.85532
  20
108.87984
  0
VERTEX
  5
5a6
  8
Layer_2
  10
167.85532
  20
104.32173
  0
VERTEX
  5
5a7
  8
Layer_2
  10
169.12534
  20
104.32173
  42
0.0023003298
  0
VERTEX
  5
5a8
  8
Layer_2
  10
169.12436
  20
109.14107
  42
0.1019917
  0
VERTEX
  5
5a9
  8
Layer_2
  10
168.89975
  20
110.66988
  42
0.21224749
  0
VERTEX
  5
5aa
  8
Layer_2
  10
167.80942
  20
111.74068
  42
0.24736105
  0
VERTEX
  5
5ab
  8
Layer_2
  10
164.9017
  20
111.50191
  42
0.091916995
  0
VERTEX
  5
5ac
  8
Layer_2
  10
164.17905
  20
110.74947
  0
VERTEX
  5
5ad
  8
Layer_2
  10
164.17905
  20
111.8149
  0
VERTEX
  5
5ae
  8
Layer_2
  10
163.03598
  20
111.8149
  0
VERTEX
  5
5af
  8
Layer_2
  10
163.03598
  20
104.32173
  0
VERTEX
  5
5b0
  8
Layer_2
  10
164.30649
  20
104.32173
  0
SEQEND
  0
POLYLINE
  5
5b2
  8
Layer_2
  62
1
  70
1
  66
1
  10
0
  20
0
  30
0
  0
VERTEX
  5
5b2
  8
Layer_2
  10
136.99301
  20
111.8149
  0
VERTEX
  5
5b3
  8
Layer_2
  10
135.72299
  20
111.8149
  0
VERTEX
  5
5b4
  8
Layer_2
  10
135.72299
  20
104.32173
  0
VERTEX
  5
5b5
  8
Layer_2
  10
136.99301
  20
104.32173
  0
SEQEND
  0
POLYLINE
  5
5b7
  8
Layer_2
  62
1
  70
1
  66
1
  10
0
  20
0
  30
0
  0
VERTEX
  5
5b7
  8
Layer_2
  10
141.60922
  20
105.20747
  42
-0.27729541
  0
VERTEX
  5
5b8
  8
Layer_2
  10
140.0101
  20
106.54585
  42
-0.1725988
  0
VERTEX
  5
5b9
  8
Layer_2
  10
140.09262
  20
109.84566
  42
-0.392314
  0
VERTEX
  5
5ba
  8
Layer_2
  10
142.36801
  20
110.8315
  42
-0.25162022
  0
VERTEX
  5
5bb
  8
Layer_2
  10
143.66098
  20
109.28902
  42
-0.13841515
  0
VERTEX
  5
5bc
  8
Layer_2
  10
143.58139
  20
106.48872
  42
-0.31803558
  0
VERTEX
  5
5bd
  8
Layer_2
  10
141.81235
  20
105.19673
  0
SEQEND
  0
POLYLINE
  5
5bf
  8
Layer_2
  62
1
  70
1
  66
1
  10
0
  20
0
  30
0
  0
VERTEX
  5
5bf
  8
Layer_2
  10
157.08578
  20
105.16841
  42
-0.15488419
  0
VERTEX
  5
5c0
  8
Layer_2
  10
156.30844
  20
105.48579
  42
-0.3728317
  0
VERTEX
  5
5c1
  8
Layer_2
  10
156.10043
  20
106.93599
  42
-0.1830152
  0
VERTEX
  5
5c2
  8
Layer_2
  10
156.79233
  20
107.41743
  42
-0.015707694
  0
VERTEX
  5
5c3
  8
Layer_2
  10
158.64877
  20
107.76265
  0
VERTEX
  5
5c4
  8
Layer_2
  10
158.91928
  20
107.82124
  42
0.038775389
  0
VERTEX
  5
5c5
  8
Layer_2
  10
159.78354
  20
108.08247
  42
-0.071921023
  0
VERTEX
  5
5c6
  8
Layer_2
  10
159.6683
  20
106.58736
  42
-0.23316858
  0
VERTEX
  5
5c7
  8
Layer_2
  10
158.44321
  20
105.32759
  42
-0.12239659
  0
SEQEND
  0
ENDSEC
  0
EOF
